<svg xmlns="http://www.w3.org/2000/svg" viewBox="0 0 1045.25 669.26"><defs><style>.cls-1{isolation:isolate;}.cls-2{fill:#ebe5f2;}.cls-3{fill:#d7cbe4;}.cls-4{fill:#2e2665;}.cls-5{fill:#493896;}.cls-6{fill:#595fab;}.cls-7{fill:#6367af;}.cls-8{fill:#45489d;}.cls-9{fill:#e9e4f1;}.cls-10{fill:#facf5b;}.cls-11,.cls-22{fill:#fff;}.cls-12{fill:#beaed5;}.cls-13{fill:#fabaac;}.cls-14{fill:#443694;}.cls-15{fill:#302767;}.cls-16{fill:#4d3b97;}.cls-17{fill:#06213a;opacity:0.5;mix-blend-mode:soft-light;}.cls-18{fill:#ef466c;}.cls-19{fill:#f0587b;}.cls-20{fill:#392e80;}.cls-21{fill:#fdc47f;}.cls-22{opacity:0.1;}.cls-23{fill:#4d3d98;}.cls-24{fill:none;stroke:#f3839e;stroke-linecap:round;stroke-miterlimit:10;stroke-width:0.5px;}.cls-25{fill:#f7a18e;}.cls-26{fill:#162e55;}.cls-27{fill:#d75c40;}.cls-28{fill:#3d2f82;}.cls-29{fill:#483594;}.cls-30{fill:#f177ae;}.cls-31{fill:#5d67af;}.cls-32{fill:#282f64;}.cls-33{fill:#fccd48;}.cls-34{fill:#fabe18;}.cls-35{fill:#d6a229;}</style></defs><title>contact</title><g class="cls-1"><g id="Layer_1" data-name="Layer 1"><path class="cls-2" d="M476.48,567.61s-85,52.68-122.34-5.1-6.8-74.76-44.18-90.05-108.75-34-105.35-64.57,44.18-59.48,44.18-103.66S201.41,163,238.4,130s63.06,2.64,105.54-33S408.51,10.27,457.79,6.87s51,37.38,88.36,52.68S651.5,29,695.68,63,728,187,726.27,285.54s74.18,167.34,35.24,197.26S496.87,499.64,476.48,567.61Z" transform="translate(-11.4 -6.67)"/><ellipse class="cls-3" cx="139.34" cy="631.44" rx="139.34" ry="25.69"/><ellipse class="cls-3" cx="665.04" cy="641.33" rx="243.55" ry="27.93"/><path class="cls-4" d="M782.84,118.94v493.8A32.22,32.22,0,0,1,750.62,645H501a32.22,32.22,0,0,1-32.21-32.22V118.94A32.24,32.24,0,0,1,501,86.72H750.62A32.24,32.24,0,0,1,782.84,118.94Z" transform="translate(-11.4 -6.67)"/><path class="cls-5" d="M651.58,624.6H600.09a12,12,0,0,1-12-12h0a12,12,0,0,1,12-12h51.49a12,12,0,0,1,12,12h0A12,12,0,0,1,651.58,624.6Z" transform="translate(-11.4 -6.67)"/><path class="cls-6" d="M763.43,131.15v437.3a15.65,15.65,0,0,1-15.63,15.63H503.85a15.66,15.66,0,0,1-15.63-15.63V131.15a15.64,15.64,0,0,1,15.63-15.63H747.8A15.63,15.63,0,0,1,763.43,131.15Z" transform="translate(-11.4 -6.67)"/><path class="cls-7" d="M734.11,116.27,488.22,523.46V131.15a15.64,15.64,0,0,1,15.63-15.63H730.51Z" transform="translate(-11.4 -6.67)"/><circle class="cls-8" cx="625.83" cy="307.74" r="77.77" transform="translate(-45.7 525.99) rotate(-45)"/><path class="cls-9" d="M654.86,319.25l8.21-28a4.6,4.6,0,0,0-4.43-5.9l-64.3.11-1.54-10.66H579a1.89,1.89,0,1,0,0,3.77h10.55l7.75,53.59h63.53a1.89,1.89,0,0,0,0-3.77H600.55l-.85-5.84h50.74A4.6,4.6,0,0,0,654.86,319.25Z" transform="translate(-11.4 -6.67)"/><path class="cls-9" d="M604.86,336.18a6.21,6.21,0,1,0,6.22,6.21A6.21,6.21,0,0,0,604.86,336.18Z" transform="translate(-11.4 -6.67)"/><path class="cls-9" d="M653.56,336.18a6.21,6.21,0,1,0,6.21,6.21A6.22,6.22,0,0,0,653.56,336.18Z" transform="translate(-11.4 -6.67)"/><path class="cls-9" d="M629.87,386.35a.94.94,0,0,1-.07-1.88c2.45-.13,4.94-.37,7.38-.73a.93.93,0,0,1,1.07.79.94.94,0,0,1-.79,1.07c-2.5.37-5.05.62-7.57.75Zm-11.25-.23h-.12c-2.51-.23-5-.59-7.52-1.06a.94.94,0,0,1,.35-1.85c2.42.46,4.89.81,7.35,1a1,1,0,0,1,.85,1A.94.94,0,0,1,618.62,386.12Zm29.71-3a.95.95,0,0,1-.29-1.85c2.36-.71,4.71-1.55,7-2.48a1,1,0,0,1,1.23.51.94.94,0,0,1-.52,1.23c-2.33,1-4.74,1.82-7.16,2.55Zm-48-1a.8.8,0,0,1-.34,0c-2.39-.83-4.76-1.79-7.05-2.85a.94.94,0,0,1-.46-1.25,1,1,0,0,1,1.25-.46c2.23,1,4.55,2,6.88,2.78a.94.94,0,0,1,.58,1.2A.93.93,0,0,1,600.3,382.15Zm65.18-6.53a.94.94,0,0,1-.5-1.76c2.12-1.25,4.2-2.63,6.18-4.08a.94.94,0,1,1,1.12,1.52c-2,1.49-4.17,2.9-6.34,4.19A1.1,1.1,0,0,1,665.48,375.62Zm-82-1.72a1.08,1.08,0,0,1-.54-.15c-2.11-1.38-4.18-2.88-6.16-4.45a.95.95,0,1,1,1.18-1.48c1.92,1.54,3.95,3,6,4.34a1,1,0,0,1,.28,1.31A1,1,0,0,1,583.47,373.9Zm96.86-9.71a.95.95,0,0,1-.69-1.62c1.76-1.72,3.45-3.55,5-5.44a.94.94,0,1,1,1.45,1.21c-1.63,1.94-3.37,3.82-5.17,5.58A.9.9,0,0,1,680.33,364.19Zm-111.22-2.33a.92.92,0,0,1-.72-.3c-1.73-1.84-3.38-3.79-4.92-5.79a.94.94,0,0,1,1.49-1.15c1.5,1.95,3.12,3.85,4.81,5.65a.95.95,0,0,1-.66,1.59ZM692,349.55a.93.93,0,0,1-.52-.14.94.94,0,0,1-.3-1.3c1.29-2.09,2.5-4.28,3.59-6.49a.94.94,0,1,1,1.69.84c-1.11,2.26-2.35,4.5-3.68,6.65A.91.91,0,0,1,692,349.55Zm-134-2.8a.94.94,0,0,1-.85-.48c-1.24-2.2-2.38-4.48-3.4-6.8a.94.94,0,0,1,1.72-.76c1,2.26,2.12,4.49,3.32,6.64a.93.93,0,0,1-.36,1.28A.82.82,0,0,1,558,346.75ZM699.9,332.54a1.22,1.22,0,0,1-.32,0,1,1,0,0,1-.6-1.19c.75-2.35,1.4-4.76,1.93-7.16a.94.94,0,1,1,1.84.4c-.54,2.47-1.2,4.94-2,7.34A.94.94,0,0,1,699.9,332.54Zm-149-3.11a1,1,0,0,1-.94-.69c-.67-2.43-1.23-4.92-1.66-7.42a.94.94,0,1,1,1.86-.32c.42,2.43,1,4.87,1.62,7.24a.94.94,0,0,1-.66,1.16A.83.83,0,0,1,550.89,329.43Zm152.55-15.29h-.09a1,1,0,0,1-.88-1c.17-2.45.23-4.95.16-7.41v-.32a.95.95,0,1,1,1.89,0v.3c.06,2.54,0,5.1-.16,7.61A1,1,0,0,1,703.44,314.14Zm-155.32-3.32a.89.89,0,0,1-1-.84v-.16c-.07-2.47,0-5,.15-7.44a.94.94,0,0,1,1.88.13c-.16,2.4-.21,4.84-.15,7.26A1,1,0,0,1,548.12,310.82Zm154.32-15.71a.93.93,0,0,1-1-.77c-.43-2.44-1-4.87-1.64-7.24a.95.95,0,0,1,1.82-.51c.67,2.43,1.24,4.93,1.67,7.42a.93.93,0,0,1-.76,1.09Zm-152.61-2.87a.78.78,0,0,1-.22,0,1,1,0,0,1-.73-1.12c.53-2.48,1.19-5,2-7.35a.95.95,0,1,1,1.8.58c-.75,2.34-1.39,4.75-1.91,7.17A1,1,0,0,1,549.83,292.24ZM697,277.19a.93.93,0,0,1-.88-.56c-1-2.24-2.12-4.48-3.33-6.63a.93.93,0,0,1,.35-1.28,1,1,0,0,1,1.29.35c1.24,2.21,2.39,4.5,3.41,6.79a.94.94,0,0,1-.84,1.33Zm-141-2.66a.85.85,0,0,1-.44-.09,1,1,0,0,1-.43-1.27c1.11-2.25,2.34-4.49,3.67-6.65a.94.94,0,0,1,1.61,1c-1.3,2.11-2.51,4.3-3.59,6.5A.94.94,0,0,1,556,274.53Zm131.41-13.42a1,1,0,0,1-.77-.37c-1.51-1.95-3.13-3.84-4.82-5.64a.94.94,0,0,1,1.37-1.29c1.73,1.84,3.39,3.78,4.94,5.78a.94.94,0,0,1-.17,1.32A1,1,0,0,1,687.38,261.11Zm-121.2-2.29a1,1,0,0,1-.63-.22,1,1,0,0,1-.12-1.33c1.62-1.93,3.35-3.81,5.15-5.59a.94.94,0,1,1,1.33,1.34c-1.76,1.74-3.45,3.57-5,5.46A1,1,0,0,1,566.18,258.82Zm108-11a.93.93,0,0,1-.61-.2c-1.93-1.54-4-3-6-4.33a1,1,0,0,1-.27-1.31.94.94,0,0,1,1.3-.27c2.12,1.37,4.19,2.86,6.17,4.43a.94.94,0,0,1,.15,1.33A.93.93,0,0,1,674.21,247.77ZM579.84,246a.95.95,0,0,1-.58-1.71c2-1.49,4.16-2.9,6.33-4.2a.93.93,0,0,1,1.29.33.94.94,0,0,1-.32,1.29c-2.12,1.27-4.2,2.65-6.19,4.1A1,1,0,0,1,579.84,246Zm78.4-8a1,1,0,0,1-.41-.08c-2.25-1-4.57-2-6.89-2.77a.94.94,0,1,1,.61-1.78c2.38.82,4.76,1.78,7.06,2.83a.94.94,0,0,1,.46,1.25A.93.93,0,0,1,658.24,238Zm-62.08-1.17a.94.94,0,0,1-.39-1.81c2.34-1,4.75-1.83,7.16-2.56a.94.94,0,1,1,.55,1.8c-2.35.71-4.7,1.55-7,2.5A1,1,0,0,1,596.16,236.79Zm44.22-4.52a.71.71,0,0,1-.2,0c-2.42-.46-4.89-.8-7.35-1a.94.94,0,0,1,.17-1.88c2.52.23,5,.58,7.53,1.05a.94.94,0,0,1,.75,1.1A.93.93,0,0,1,640.38,232.27Zm-26.17-.48a.95.95,0,0,1-.16-1.88c2.49-.37,5-.63,7.56-.76h0a1,1,0,0,1,1,.9.94.94,0,0,1-.89,1c-2.47.13-5,.38-7.38.75Z" transform="translate(-11.4 -6.67)"/><circle class="cls-10" cx="614.44" cy="382.36" r="17.57"/><path class="cls-8" d="M625,397.35l-7.82-7.06a1.59,1.59,0,0,1-.12-2.25,1.61,1.61,0,0,1,2.25-.12l5.36,4.83,8.59-10.41a1.59,1.59,0,1,1,2.46,2Z" transform="translate(-11.4 -6.67)"/><path class="cls-11" d="M669.21,531.83h3.87v-8.3h-3.19v-2.07a10,10,0,0,0,4.07-1.31h2.45v11.68h3.26v2.68H669.21Z" transform="translate(-11.4 -6.67)"/><path class="cls-11" d="M682.26,527.27c0-4.89,2.2-7.39,5.52-7.39s5.53,2.5,5.53,7.39-2.2,7.51-5.53,7.51S682.26,532.15,682.26,527.27Zm8.08,0c0-3.73-1.13-4.82-2.56-4.82s-2.55,1.09-2.55,4.82,1.13,4.94,2.55,4.94S690.34,531,690.34,527.27Zm-4.25,0a1.7,1.7,0,1,1,1.69,1.72A1.64,1.64,0,0,1,686.09,527.23Z" transform="translate(-11.4 -6.67)"/><path class="cls-11" d="M695.84,527.27c0-4.89,2.19-7.39,5.52-7.39s5.52,2.5,5.52,7.39-2.2,7.51-5.52,7.51S695.84,532.15,695.84,527.27Zm8.08,0c0-3.73-1.14-4.82-2.56-4.82s-2.56,1.09-2.56,4.82,1.13,4.94,2.56,4.94S703.92,531,703.92,527.27Zm-4.26,0a1.7,1.7,0,1,1,1.7,1.72A1.65,1.65,0,0,1,699.66,527.23Z" transform="translate(-11.4 -6.67)"/><path class="cls-11" d="M708.54,532.23l4.22-3.92,1.16,1.07-3.67,4.51Zm.17-8.58c0-2.36,1.45-3.77,3.36-3.77s3.36,1.41,3.36,3.77-1.45,3.82-3.36,3.82S708.71,526,708.71,523.65Zm4.43,0c0-1.55-.51-2-1.07-2s-1.07.44-1.07,2,.51,2,1.07,2S713.14,525.18,713.14,523.65Zm1.31,7.31c0-2.35,1.44-3.76,3.35-3.76s3.36,1.41,3.36,3.76-1.44,3.82-3.36,3.82S714.45,533.3,714.45,531Zm1.54-6.05,3.66-4.51,1.72,1.66L717.15,526Zm2.89,6.05c0-1.54-.51-2-1.08-2s-1.07.44-1.07,2,.51,2,1.07,2S718.88,532.5,718.88,531Z" transform="translate(-11.4 -6.67)"/><path class="cls-4" d="M726.89,495.19a8.57,8.57,0,0,1-8.58,8.58h-185a8.57,8.57,0,1,1,0-17.14h185A8.57,8.57,0,0,1,726.89,495.19Z" transform="translate(-11.4 -6.67)"/><rect class="cls-6" x="544.67" y="479.96" width="1.89" height="17.14"/><rect class="cls-6" x="579.44" y="479.96" width="1.89" height="17.14"/><rect class="cls-6" x="614.21" y="479.96" width="1.89" height="17.14"/><rect class="cls-6" x="649" y="479.96" width="1.89" height="17.14"/><rect class="cls-6" x="683.77" y="479.96" width="1.89" height="17.14"/><path class="cls-12" d="M139.33,636.13c0,5.81-26.24,10.52-58.62,10.52S22.1,641.94,22.1,636.13s26.24-10.51,58.61-10.51S139.33,630.32,139.33,636.13Z" transform="translate(-11.4 -6.67)"/><path class="cls-12" d="M277.81,636.13c0,5.81-26.25,10.52-58.62,10.52s-58.62-4.71-58.62-10.52,26.25-10.51,58.62-10.51S277.81,630.32,277.81,636.13Z" transform="translate(-11.4 -6.67)"/><path class="cls-4" d="M122.78,636.82H37.5c-1.06-3.68-2.14-10.94,3.76-15.67,8.14-6.51,47.31-20.22,47.31-20.22l28.38-1S128.17,626.79,122.78,636.82Z" transform="translate(-11.4 -6.67)"/><path class="cls-13" d="M117.6,576.46l-.33,25.45a20.07,20.07,0,0,1-14.76,6.28,16.8,16.8,0,0,1-14-7.26l1.31-24.15Z" transform="translate(-11.4 -6.67)"/><path class="cls-14" d="M55.61,624a1.87,1.87,0,0,1-1.87-1.87v-7.83a1.87,1.87,0,1,1,3.73,0v7.83A1.87,1.87,0,0,1,55.61,624Z" transform="translate(-11.4 -6.67)"/><path class="cls-14" d="M67,624a1.87,1.87,0,0,1-1.87-1.87V610.39a1.87,1.87,0,1,1,3.73,0v11.75A1.87,1.87,0,0,1,67,624Z" transform="translate(-11.4 -6.67)"/><path class="cls-4" d="M181.7,636.82H267c1.07-3.68,2.15-10.94-3.75-15.67-8.14-6.51-47.31-20.22-47.31-20.22l-28.38-1S176.31,626.79,181.7,636.82Z" transform="translate(-11.4 -6.67)"/><path class="cls-13" d="M186.88,576.46l.32,25.45A20.08,20.08,0,0,0,202,608.19a16.8,16.8,0,0,0,13.95-7.26l-1.31-24.15Z" transform="translate(-11.4 -6.67)"/><path class="cls-14" d="M249.1,624a1.87,1.87,0,0,1-1.87-1.87v-7.83a1.87,1.87,0,1,1,3.73,0v7.83A1.87,1.87,0,0,1,249.1,624Z" transform="translate(-11.4 -6.67)"/><path class="cls-14" d="M237.68,624a1.87,1.87,0,0,1-1.87-1.87V610.39a1.87,1.87,0,1,1,3.73,0v11.75A1.87,1.87,0,0,1,237.68,624Z" transform="translate(-11.4 -6.67)"/><path class="cls-15" d="M105.53,365.46,77.68,576.89a243.26,243.26,0,0,0,28.72,1.74c15.66,0,21.75-1.74,21.75-1.74L149,406.35l30.46,174s16.53,4.35,25.23,4.35A81.27,81.27,0,0,0,223,582.11L200.37,370.68Z" transform="translate(-11.4 -6.67)"/><path class="cls-16" d="M106.83,407.72a.52.52,0,0,1-.43-.24.51.51,0,0,1,.18-.69c14.33-8.43,11.11-32.75,11.07-33a.5.5,0,0,1,.43-.56.5.5,0,0,1,.56.42c0,.26,3.35,25.23-11.55,34A.48.48,0,0,1,106.83,407.72Z" transform="translate(-11.4 -6.67)"/><path class="cls-16" d="M190.8,410.77a.57.57,0,0,1-.3-.1c-10.13-7.5-6-31.66-5.85-32.68a.49.49,0,0,1,.58-.4.48.48,0,0,1,.4.57c0,.25-4.18,24.58,5.46,31.71a.5.5,0,0,1,.11.69A.49.49,0,0,1,190.8,410.77Z" transform="translate(-11.4 -6.67)"/><path class="cls-16" d="M152.73,382.92a4.2,4.2,0,1,1,4.2-4.19A4.2,4.2,0,0,1,152.73,382.92Zm0-7.39a3.2,3.2,0,1,0,3.2,3.2A3.2,3.2,0,0,0,152.73,375.53Z" transform="translate(-11.4 -6.67)"/><path class="cls-17" d="M530.07,160.14V346.32a15,15,0,0,1-15,15H465.58V145.19h49.53A15,15,0,0,1,530.07,160.14Z" transform="translate(-11.4 -6.67)"/><path class="cls-18" d="M338.73,150.55s-27.41,44.81-56.58,67.87S207.34,258,207.34,258L206,370.68a202,202,0,0,1-47,1.74c-24.79-2.17-59.16-7.4-59.16-7.4s1.3-127.91,11.31-143.56c7.56-11.82,20.58-14.73,26.5-15.44a30.11,30.11,0,0,1,3.09-.22l5.68.18,26.12.9h.17s4.72-.36,12.58-1.49a304.26,304.26,0,0,0,56.37-13.95c36.56-13.05,93.54-60.05,93.54-60.05Z" transform="translate(-11.4 -6.67)"/><path class="cls-19" d="M181.23,206l-19.9,33.06-23.65-33a30.11,30.11,0,0,1,3.09-.22l5.68.18,14.88,22,11.24-21.1h.17S173.37,207.15,181.23,206Z" transform="translate(-11.4 -6.67)"/><polygon class="cls-11" points="145.25 214.02 148.73 208.04 154.06 213.59 161.34 200.21 148.19 196.29 135.05 199.31 145.25 214.02"/><path class="cls-4" d="M515.23,159V329.48a13.7,13.7,0,0,1-13.69,13.69H233.11a13.69,13.69,0,0,1-13.7-13.69V159a13.7,13.7,0,0,1,13.7-13.7H501.54A13.7,13.7,0,0,1,515.23,159Z" transform="translate(-11.4 -6.67)"/><rect class="cls-20" x="230.78" y="172.28" width="172.01" height="10.9"/><path class="cls-21" d="M245.88,243.84a5.19,5.19,0,0,1-1.88-.35v-9.64a5,5,0,0,1,1.88-.35h19.81a5.17,5.17,0,0,1,0,10.34Z" transform="translate(-11.4 -6.67)"/><path class="cls-21" d="M292.26,230.21v5.93H276.33a10.91,10.91,0,0,0-10.64-8.52H245.88a6.16,6.16,0,0,0-1.47.18,8,8,0,0,1,7.76-5.82h31.92A8.2,8.2,0,0,1,292.26,230.21Z" transform="translate(-11.4 -6.67)"/><path class="cls-21" d="M276.09,242h16.17v7.58a8.2,8.2,0,0,1-8.17,8.23H252.17A8.2,8.2,0,0,1,244,249.6v-.06a10,10,0,0,0,1.88.18h19.81A10.87,10.87,0,0,0,276.09,242Z" transform="translate(-11.4 -6.67)"/><rect class="cls-20" x="230.78" y="269.57" width="238.94" height="14.69"/><rect class="cls-20" x="373.16" y="297" width="96.56" height="13.72"/><path class="cls-22" d="M384.83,145.29c-29.4,39.07-97.66,119.28-165.42,123.11V159a13.7,13.7,0,0,1,13.7-13.7Z" transform="translate(-11.4 -6.67)"/><rect class="cls-23" x="413.92" y="159.19" width="62.12" height="34.3" rx="4.38"/><path class="cls-13" d="M211,354.8s27.19,13.7,30.23,10.66-2.39-4.79-2.39-4.79,7.83,3.92,9.57,1.52-5.87-7.17-5.87-7.17,10.44,4.35,12,1.08-16.31-9.78-16.31-9.78,14.14,3,14.79,0-12-6.1-12-6.1,7-1.3,5.43-5.22-27-.65-27-.65Z" transform="translate(-11.4 -6.67)"/><path class="cls-19" d="M118.58,214s15,10.12,10.77,36.22c0,0-8.16,28.39,12.4,42.09S221,333.37,221,333.37l-10.44,22.19s-83.2-13.7-103.76-42.09S90.19,237.12,118.58,214Z" transform="translate(-11.4 -6.67)"/><path class="cls-24" d="M118.58,214s15,10.12,10.77,36.22a52.51,52.51,0,0,0-1.44,17" transform="translate(-11.4 -6.67)"/><path class="cls-13" d="M335.24,131.4s.49,30.34,6.36,30.34,2.77-18.43,2.77-18.43,1,19.9,5.88,19.74,2.12-21.37,2.12-21.37,1.63,20.88,6.52,20.55.49-21.53.49-21.53,2.29,16.8,7.51,16.31,3.75-25.61-.66-27.41-12.23-3.75-20.06-2.12S335.24,131.4,335.24,131.4Z" transform="translate(-11.4 -6.67)"/><path class="cls-13" d="M172.74,159.25v47.63s-2.17,3.47-15.44,3.47-15-3.47-15-3.47V159.25Z" transform="translate(-11.4 -6.67)"/><path class="cls-25" d="M172.74,183.34v14.35c-1.7-.09-3.6-.2-5.71-.39-27.08-2.28-22.35-38-22.35-38Z" transform="translate(-11.4 -6.67)"/><path class="cls-13" d="M200.37,147.71c-.66-4.06-4.57-3.81-6.08-3.55v-6.89a24.81,24.81,0,0,0-49.61,0v6.87a8.47,8.47,0,0,0-3.91-1c-4.68,0-7.18,4.25-6.14,9,.77,3.4,2.88,6.16,7.6,7.35a20.24,20.24,0,0,0,2.45.45V166a24.81,24.81,0,0,0,49.61,0V155.37C196.2,154.47,201,151.78,200.37,147.71Z" transform="translate(-11.4 -6.67)"/><path class="cls-26" d="M198.84,101.71c-2-4.58-9.13,3.26-9.13,3.26s2.82-7,.77-8.92-7.4,2.82-7.4,2.82-7.3-5-20.46-1.85c-12.42,3-16.41,20.17-16.8,22a7.07,7.07,0,0,0-1.89-.26c-5.53,0-10,6.22-10,13.91s5.57,16.21,11.09,16.21,8.91-8.52,8.91-16.21c0-.61,0-1.23-.09-1.81,3.06,1.18,7.28,1.92,13,1.81,8.45-.17,14.92-1.23,19.83-2.89a20.63,20.63,0,0,0,7.58,9.44v-2a24.68,24.68,0,0,0-2.08-9.92C206.05,119.41,200.26,105,198.84,101.71Z" transform="translate(-11.4 -6.67)"/><path class="cls-26" d="M194.29,166a24.81,24.81,0,0,1-49.61,0V144.14l5.77,1.61s3.15,25.35,28,25C190.29,170.61,194.29,166,194.29,166Z" transform="translate(-11.4 -6.67)"/><path class="cls-27" d="M142.78,153.23c-2.13,0-3.64-.49-4.5-1.46a3,3,0,0,1-.73-2.31.28.28,0,0,1,.33-.23.29.29,0,0,1,.23.32,2.33,2.33,0,0,0,.6,1.85c.83.94,2.5,1.38,4.82,1.25h0a.28.28,0,0,1,.28.27.27.27,0,0,1-.26.29C143.29,153.23,143,153.23,142.78,153.23Z" transform="translate(-11.4 -6.67)"/><path class="cls-27" d="M194.72,150.45h-.29a.29.29,0,0,1-.27-.29.27.27,0,0,1,.29-.27,3.32,3.32,0,0,0,2.59-.78,2.71,2.71,0,0,0,.71-1.86.28.28,0,0,1,.27-.3.29.29,0,0,1,.29.27,3.25,3.25,0,0,1-.88,2.28A3.63,3.63,0,0,1,194.72,150.45Z" transform="translate(-11.4 -6.67)"/><path class="cls-27" d="M168.5,156.85a3.72,3.72,0,0,1-2.89-1.22c-1.72-1.91-1.36-5.39-1.35-5.54a.65.65,0,1,1,1.3.14s-.3,3.05,1,4.53a2.44,2.44,0,0,0,1.92.78,2.24,2.24,0,0,0,1.82-.75c1.07-1.25.94-3.81.8-4.69a.65.65,0,1,1,1.29-.2c0,.15.57,3.78-1.1,5.73A3.51,3.51,0,0,1,168.5,156.85Z" transform="translate(-11.4 -6.67)"/><path class="cls-27" d="M186.94,156.85a3.72,3.72,0,0,1-2.9-1.22c-1.71-1.91-1.36-5.39-1.34-5.54a.65.65,0,0,1,.72-.58.65.65,0,0,1,.58.72s-.31,3.05,1,4.53a2.41,2.41,0,0,0,1.92.78,2.24,2.24,0,0,0,1.82-.75c1.06-1.25.93-3.81.79-4.69a.66.66,0,0,1,1.3-.2c0,.15.57,3.78-1.1,5.73A3.52,3.52,0,0,1,186.94,156.85Z" transform="translate(-11.4 -6.67)"/><path class="cls-27" d="M176.73,166.31a4,4,0,0,1-.6,0,.65.65,0,1,1,.19-1.29,4.61,4.61,0,0,0,3.67-1.39c-.05-.58-1.8-7.89-2.9-12.35a.65.65,0,0,1,1.27-.31c.69,2.79,2.93,12,2.93,12.72a1.69,1.69,0,0,1-.72,1.23A6.3,6.3,0,0,1,176.73,166.31Z" transform="translate(-11.4 -6.67)"/><path class="cls-26" d="M161.54,147.89a.94.94,0,0,1-.5-1.73c.29-.18,7.05-4.38,12.58-1.45A.94.94,0,0,1,174,146a.93.93,0,0,1-1.26.38c-4.58-2.43-10.64,1.34-10.7,1.38A.91.91,0,0,1,161.54,147.89Z" transform="translate(-11.4 -6.67)"/><path class="cls-26" d="M180.58,146.69a.94.94,0,0,1-.76-.39A.93.93,0,0,1,180,145c.31-.23,7.76-5.51,11.86-.66a.93.93,0,0,1-1.42,1.2c-3-3.54-9.29.93-9.35,1A.92.92,0,0,1,180.58,146.69Z" transform="translate(-11.4 -6.67)"/><path class="cls-11" d="M176.53,176.85a9,9,0,0,1-5.59-2.12.65.65,0,1,1,.89-1,6.94,6.94,0,0,0,8.44.59.65.65,0,1,1,.72,1.09A8.11,8.11,0,0,1,176.53,176.85Z" transform="translate(-11.4 -6.67)"/><path class="cls-25" d="M168.28,162a3,3,0,1,1-3-3A3,3,0,0,1,168.28,162Z" transform="translate(-11.4 -6.67)"/><path class="cls-25" d="M192.59,161.49a3,3,0,1,1-3-3A3,3,0,0,1,192.59,161.49Z" transform="translate(-11.4 -6.67)"/><path class="cls-17" d="M783.31,500.75v91.8c-4.23,1.74-8.88,1.37-11.74.87l-7.75-90.64C768.16,500.14,775.73,500,783.31,500.75Z" transform="translate(-11.4 -6.67)"/><path class="cls-12" d="M903,647.17c0,5.76-26,10.43-58.12,10.43s-58.12-4.67-58.12-10.43,26-10.42,58.12-10.42S903,641.42,903,647.17Z" transform="translate(-11.4 -6.67)"/><path class="cls-26" d="M825.12,149.66s-6.59-.48-13.86,4.36-14.46,10.52-14.39,29.85c.07,20.24-2.29,19.11-10.79,32.25-4.34,6.7-15.8,25.34,10.51,28.45s39.88-6.36,58.68-5.66,23.78-14.11,19.4-21.83-6.81-29.07-3.42-36.89C878.83,162.7,853.72,130.16,825.12,149.66Z" transform="translate(-11.4 -6.67)"/><path class="cls-28" d="M921.32,489.53C917.43,521.63,837,553,837,553l-11.48-55.7,45.57-12.12-35-44.45,3.29-42.2c11,.22,33-3.07,33-3.07S924,467.65,921.32,489.53Z" transform="translate(-11.4 -6.67)"/><path class="cls-11" d="M769.4,503.46l6.91,81c3.58.72,10.57,1.16,14.58-4.83,5.53-8.26,15.37-46.59,15.37-46.59l-1.36-27S778.48,497.52,769.4,503.46Z" transform="translate(-11.4 -6.67)"/><path class="cls-13" d="M827.16,503.48,803,505.86a19.11,19.11,0,0,0-4.77,14.53,16,16,0,0,0,8,12.67L833,529.52Z" transform="translate(-11.4 -6.67)"/><path class="cls-28" d="M787,566.45a1.77,1.77,0,0,1,1.62-1.92l7.44-.64a1.78,1.78,0,0,1,.3,3.55l-7.44.63A1.77,1.77,0,0,1,787,566.45Z" transform="translate(-11.4 -6.67)"/><path class="cls-28" d="M786.11,555.6a1.77,1.77,0,0,1,1.62-1.92l11.16-1a1.78,1.78,0,1,1,.3,3.55l-11.16,1A1.77,1.77,0,0,1,786.11,555.6Z" transform="translate(-11.4 -6.67)"/><path class="cls-11" d="M801.65,650.35h79.48c1-3.42,2-10.19-3.5-14.6-7.58-6.07-44.1-18.84-44.1-18.84L807.08,616S796.62,641,801.65,650.35Z" transform="translate(-11.4 -6.67)"/><path class="cls-13" d="M806.48,594.09l.3,23.73a18.72,18.72,0,0,0,13.76,5.85,15.63,15.63,0,0,0,13-6.77l-1.21-22.5Z" transform="translate(-11.4 -6.67)"/><path class="cls-28" d="M864.26,638.41a1.74,1.74,0,0,0,1.74-1.74v-7.3a1.74,1.74,0,0,0-3.48,0v7.3A1.74,1.74,0,0,0,864.26,638.41Z" transform="translate(-11.4 -6.67)"/><path class="cls-28" d="M853.62,638.41a1.74,1.74,0,0,0,1.74-1.74V625.72a1.74,1.74,0,0,0-3.48,0v10.95A1.73,1.73,0,0,0,853.62,638.41Z" transform="translate(-11.4 -6.67)"/><polygon class="cls-29" points="835.98 593.52 783.3 593.65 776.11 384.51 835.64 389.46 835.98 593.52"/><path class="cls-13" d="M999.74,298.65c-.81-2.48-11.94,2.07-11.94,2.07s9.11-3.72,8.5-6.21-17.21,3.73-17.21,3.73,6.07-3.11,4.66-4.76S968,297.2,968,297.2s-48.81,10-67.8,8.22c-23.46-2.24-30.88-35.57-30.88-35.57-8.19-23.85-28.82-27-28.82-27-13.41,32.27,10.79,70.91,40.86,85.5,25.1,12.18,82.61-10.83,87.59-12.58,3.12-.3,27.12-2.63,26-5.14s-6.55-1.09-7.37-.86c1.13-.32,10.36-3,9.6-5.14s-10.15.79-11.4,1.19C987.15,305.38,1000.51,301,999.74,298.65Z" transform="translate(-11.4 -6.67)"/><path class="cls-30" d="M878.56,394.05s-4,1.08-10.45,2.16a157.49,157.49,0,0,1-28.7,2.28c-2.47-.08-4.95-.19-7.46-.42-23.64-2.07-58.16-8.21-58.16-8.21s2.24-27.55,3.55-46.42c2.52-36.79,11.14-78.58,16.41-89,1.84-3.65,3.09-6.64,6.11-8.74,8.25-5.75,20.1-6.3,20.1-6.3l24.91.85H845l.06.08c1.33,1.19,23,18,23.85,40.46C869.66,299.76,878.56,394.05,878.56,394.05Z" transform="translate(-11.4 -6.67)"/><path class="cls-13" d="M893.38,368.13l2.34-5.05s-56.88-15.67-76.48-28.74-9.11-54.14-9.11-54.14c4-24.89-10.27-34.53-10.27-34.53-27.07,22.09-25.28,75-5.68,102.07s94,31.58,94,31.58l0-.05c4.68,1.64,23.53,7.78,34.87,4C934.72,379.29,900.63,370,893.38,368.13Z" transform="translate(-11.4 -6.67)"/><path class="cls-31" d="M897.15,373.87l7.32-11.26a2.93,2.93,0,0,1,3.2-1.23l39,10.23a2.94,2.94,0,0,1,1.93,4L943,388.14a2.94,2.94,0,0,1-3.47,1.62l-40.7-11.47A2.93,2.93,0,0,1,897.15,373.87Z" transform="translate(-11.4 -6.67)"/><path class="cls-32" d="M902.76,373.86l5.77-8.87a2.32,2.32,0,0,1,2.53-1l30.74,8.07a2.31,2.31,0,0,1,1.52,3.18l-4.44,9.85a2.3,2.3,0,0,1-2.73,1.27l-32.08-9A2.31,2.31,0,0,1,902.76,373.86Z" transform="translate(-11.4 -6.67)"/><path class="cls-13" d="M894.42,362.64s15.46,3.55,16.6,6.21-19.32,2.8-19.32,2.8Z" transform="translate(-11.4 -6.67)"/><path class="cls-13" d="M845,194.81v45.42s-2.07,3.31-14.73,3.31S816,240.23,816,240.23V194.81Z" transform="translate(-11.4 -6.67)"/><path class="cls-25" d="M845,217.78v13.69c-1.62-.09-3.44-.19-5.45-.37-25.81-2.17-21.31-36.23-21.31-36.23Z" transform="translate(-11.4 -6.67)"/><path class="cls-13" d="M865.57,191.11v10.13a23.65,23.65,0,0,1-47.3,0v-5.79a22.84,22.84,0,0,1-2.33-.41c-4.51-1.14-6.52-3.78-7.25-7-1-4.52,1.39-8.58,5.87-8.58a7.94,7.94,0,0,1,3.71,1v-6.54a23.66,23.66,0,0,1,46.67-5.45,23.3,23.3,0,0,1,.63,5.45v6.56c1.46-.25,5.17-.49,5.8,3.38S867.41,190.26,865.57,191.11Z" transform="translate(-11.4 -6.67)"/><path class="cls-27" d="M816.46,189.08c-2,0-3.47-.47-4.29-1.4a2.78,2.78,0,0,1-.69-2.2.27.27,0,0,1,.31-.22.27.27,0,0,1,.21.31,2.3,2.3,0,0,0,.58,1.76c.79.9,2.39,1.31,4.59,1.2h0a.26.26,0,0,1,.26.25.26.26,0,0,1-.25.28Z" transform="translate(-11.4 -6.67)"/><path class="cls-27" d="M866,186.42h-.28a.27.27,0,1,1,0-.53,3.12,3.12,0,0,0,2.46-.74,2.62,2.62,0,0,0,.69-1.78.27.27,0,0,1,.25-.28.27.27,0,0,1,.28.25,3.08,3.08,0,0,1-.84,2.18A3.46,3.46,0,0,1,866,186.42Z" transform="translate(-11.4 -6.67)"/><path class="cls-27" d="M841,192.53a3.52,3.52,0,0,1-2.76-1.17c-1.64-1.82-1.3-5.14-1.29-5.28a.62.62,0,0,1,1.24.13s-.29,2.92,1,4.32a2.29,2.29,0,0,0,1.83.75,2.16,2.16,0,0,0,1.73-.72c1-1.19.9-3.63.76-4.47a.62.62,0,0,1,.52-.71.62.62,0,0,1,.71.52c0,.14.55,3.6-1,5.47A3.36,3.36,0,0,1,841,192.53Z" transform="translate(-11.4 -6.67)"/><path class="cls-27" d="M858.57,192.53a3.52,3.52,0,0,1-2.76-1.17c-1.64-1.82-1.3-5.14-1.29-5.28a.62.62,0,0,1,1.24.13s-.29,2.92,1,4.32a2.29,2.29,0,0,0,1.83.75,2.16,2.16,0,0,0,1.73-.72c1-1.19.89-3.63.76-4.47a.62.62,0,0,1,.52-.71.62.62,0,0,1,.71.52c0,.14.55,3.6-1,5.47A3.36,3.36,0,0,1,858.57,192.53Z" transform="translate(-11.4 -6.67)"/><path class="cls-27" d="M848.83,201.55a3.64,3.64,0,0,1-.57,0,.62.62,0,1,1,.18-1.23,4.39,4.39,0,0,0,3.5-1.33c-.05-.55-1.72-7.52-2.76-11.77a.61.61,0,0,1,.45-.75.63.63,0,0,1,.76.45c.65,2.66,2.79,11.4,2.79,12.14a1.64,1.64,0,0,1-.69,1.17A6,6,0,0,1,848.83,201.55Z" transform="translate(-11.4 -6.67)"/><path class="cls-26" d="M834.35,184a.91.91,0,0,1-.75-.41.89.89,0,0,1,.27-1.23c.27-.18,6.73-4.19,12-1.39a.89.89,0,0,1-.83,1.58c-4.37-2.33-10.15,1.27-10.2,1.31A1,1,0,0,1,834.35,184Z" transform="translate(-11.4 -6.67)"/><path class="cls-26" d="M852.5,182.84a.89.89,0,0,1-.52-1.61c.3-.22,7.4-5.26,11.31-.63a.89.89,0,0,1-1.36,1.15c-2.85-3.38-8.85.88-8.91.92A.92.92,0,0,1,852.5,182.84Z" transform="translate(-11.4 -6.67)"/><path class="cls-27" d="M848.64,211.59a8.66,8.66,0,0,1-5.33-2,.62.62,0,0,1,0-.88.63.63,0,0,1,.88,0,6.61,6.61,0,0,0,8.05.56.62.62,0,1,1,.68,1A7.63,7.63,0,0,1,848.64,211.59Z" transform="translate(-11.4 -6.67)"/><path class="cls-25" d="M840.78,197.45a2.85,2.85,0,1,1-2.85-2.85A2.85,2.85,0,0,1,840.78,197.45Z" transform="translate(-11.4 -6.67)"/><path class="cls-25" d="M864,197a2.86,2.86,0,1,1-2.86-2.85A2.86,2.86,0,0,1,864,197Z" transform="translate(-11.4 -6.67)"/><path class="cls-26" d="M816.23,192a.83.83,0,1,1-.83-.83A.83.83,0,0,1,816.23,192Z" transform="translate(-11.4 -6.67)"/><circle class="cls-26" cx="855.56" cy="181.51" r="0.83"/><path class="cls-26" d="M865.31,168.33a24.07,24.07,0,0,0-23.4-18.5,24.06,24.06,0,0,0-24,24v7.18l.56-.31c.11-.05,10.36-5.68,14.82-14.58,1.37,1.14,6.44,4.64,17,4.64l1.58,0a50.74,50.74,0,0,0,13.22-2l.34-.1Z" transform="translate(-11.4 -6.67)"/><rect class="cls-33" x="811.89" y="165.25" width="11.88" height="3.3" transform="translate(63.27 -219.78) rotate(15.55)"/><circle class="cls-34" cx="981.48" cy="247.08" r="26.21"/><circle class="cls-10" cx="981.48" cy="247.08" r="21.7"/><path class="cls-35" d="M999.58,257.08c0-5.56-8.9-5.3-8.9-7.46,0-.89.75-1.4,2.11-1.4a6,6,0,0,1,3.1.8,1.69,1.69,0,0,0,2.1-.36l.15-.18a1.7,1.7,0,0,0-.37-2.53,7.83,7.83,0,0,0-3.41-1.27V242.2a1.48,1.48,0,0,0-1.48-1.48h0a1.49,1.49,0,0,0-1.49,1.48v2.52c-3.09.49-5,2.32-5,5,0,5.61,8.89,5.16,8.89,7.71,0,.87-.77,1.39-2.25,1.39a8.76,8.76,0,0,1-4.14-1.12,1.71,1.71,0,0,0-2.22.57l-.21.33a1.67,1.67,0,0,0,.56,2.37,12,12,0,0,0,4.38,1.41v3a1.49,1.49,0,0,0,1.49,1.49h0a1.49,1.49,0,0,0,1.48-1.49v-3.07C997.74,261.67,999.58,259.63,999.58,257.08Z" transform="translate(-11.4 -6.67)"/><circle class="cls-34" cx="1028.03" cy="189.97" r="26.21" transform="translate(664.44 1167.63) rotate(-80.78)"/><circle class="cls-10" cx="1028.03" cy="189.97" r="21.7" transform="translate(664.44 1167.63) rotate(-80.78)"/><path class="cls-35" d="M1034.73,193.29c0-5.56-8.89-5.29-8.89-7.46,0-.88.75-1.4,2.11-1.4a6,6,0,0,1,3.09.81,1.68,1.68,0,0,0,2.1-.37l.16-.18a1.69,1.69,0,0,0-.37-2.52,7.92,7.92,0,0,0-3.41-1.27v-2.48a1.49,1.49,0,0,0-1.49-1.49h0a1.49,1.49,0,0,0-1.48,1.49v2.52c-3.1.48-5,2.32-5,4.95,0,5.62,8.9,5.17,8.9,7.72,0,.87-.78,1.39-2.25,1.39a8.84,8.84,0,0,1-4.14-1.12,1.7,1.7,0,0,0-2.23.57l-.21.32a1.69,1.69,0,0,0,.57,2.38,11.9,11.9,0,0,0,4.38,1.41v3A1.48,1.48,0,0,0,1028,203h0a1.49,1.49,0,0,0,1.49-1.48v-3.07C1032.9,197.88,1034.73,195.84,1034.73,193.29Z" transform="translate(-11.4 -6.67)"/><circle class="cls-34" cx="941.77" cy="209.34" r="26.21" transform="translate(572.89 1098.74) rotate(-80.78)"/><circle class="cls-10" cx="941.77" cy="209.34" r="21.7" transform="translate(572.89 1098.74) rotate(-80.78)"/><path class="cls-35" d="M948.47,212.66c0-5.56-8.9-5.3-8.9-7.46,0-.89.76-1.4,2.12-1.4a6,6,0,0,1,3.09.8,1.69,1.69,0,0,0,2.1-.36l.15-.18a1.7,1.7,0,0,0-.36-2.53,7.92,7.92,0,0,0-3.41-1.27v-2.48a1.49,1.49,0,0,0-1.49-1.48h0a1.49,1.49,0,0,0-1.49,1.48v2.52c-3.09.49-5,2.32-5,5,0,5.61,8.9,5.16,8.9,7.71,0,.87-.78,1.39-2.26,1.39a8.72,8.72,0,0,1-4.13-1.12,1.72,1.72,0,0,0-2.23.57l-.21.33a1.68,1.68,0,0,0,.56,2.37,12,12,0,0,0,4.38,1.41v3a1.49,1.49,0,0,0,1.49,1.49h0a1.49,1.49,0,0,0,1.49-1.49v-3.07C946.64,217.25,948.47,215.21,948.47,212.66Z" transform="translate(-11.4 -6.67)"/><polygon class="cls-33" points="963.19 155.81 966.27 140.75 971.22 155.71 982.07 160.65 971.11 165.78 965.99 180.83 963.09 165.88 950.19 160.94 963.19 155.81"/><polygon class="cls-33" points="1034.53 227.05 1036.28 218.5 1039.09 226.99 1045.25 229.8 1039.03 232.71 1036.12 241.26 1034.47 232.77 1027.14 229.96 1034.53 227.05"/><polygon class="cls-33" points="923.49 250.01 925.24 241.46 928.04 249.96 934.21 252.76 927.99 255.68 925.07 264.23 923.43 255.73 916.1 252.93 923.49 250.01"/></g></g></svg>