<svg width="528" height="540" viewBox="0 0 528 540" fill="none" xmlns="http://www.w3.org/2000/svg">
<mask id="mask0" mask-type="alpha" maskUnits="userSpaceOnUse" x="0" y="0" width="528" height="540">
<rect width="528" height="540" fill="#C4C4C4"/>
</mask>
<g mask="url(#mask0)">
<path d="M328.227 136.184C382.916 148.638 504.351 115.438 523.152 244.987C541.952 374.536 472.998 448.092 421.817 449.597C370.637 451.103 291.013 382.03 267.493 397.784C243.535 413.832 225.623 437.664 199.094 449.253C170.75 461.635 134.291 470.859 104.457 455.181C72.2297 438.244 39.3068 409.239 21.0926 373.68C5.37216 342.99 -0.892668 317.634 3.48344 284.248C7.126 256.457 18.6606 224.479 34.5723 203.366C59.927 169.723 97.9605 136.511 134.252 119.629C169.102 103.418 205.078 101.105 242.74 109.172C271.805 115.398 273.538 123.73 328.227 136.184Z" fill="#50EFF5"/>
<mask id="mask1" mask-type="alpha" maskUnits="userSpaceOnUse" x="0" y="0" width="528" height="540">
<rect width="528" height="540" fill="#C4C4C4"/>
</mask>
<g mask="url(#mask1)">
<path d="M124.26 80.5269C122.568 81.5123 111.744 87.8105 111.604 99.4321C111.497 108.633 118.168 114.706 119.346 115.745C120.213 117.33 121.273 119.73 121.701 122.814C122.493 128.599 120.523 133.151 119.581 135.036C107.322 138.721 102.621 145.351 101.037 148.007C99.5484 150.503 98.5633 153.213 97.3427 156.597C95.6617 161.257 94.0557 165.691 93.6274 171.422C93.2634 176.263 93.8951 180.13 94.9015 186.364C95.9294 192.737 96.6682 193.508 96.529 197.278C96.3577 201.841 95.1692 203.373 95.9508 206.822C96.6896 210.078 98.0708 210.185 100.234 214.181C103.585 220.372 101.925 223.135 105.041 230.054C105.898 231.94 107.322 234.628 109.741 237.595C108.681 240.209 107.29 243.422 105.512 247.021C103.381 251.316 102.557 252.419 101.733 255.172C100.448 259.435 99.4306 262.82 101.047 265.605C102.546 268.186 105.287 268.497 108.628 273.36C108.885 273.734 109.078 274.045 109.206 274.249C108.703 276.626 107.996 280.504 107.686 285.324C106.572 302.687 111.604 316.44 114.495 324.12C115.727 327.397 117.697 332.142 120.652 337.68C120.77 347.877 120.609 364.436 118.671 380.696C117.814 387.819 116.915 392.489 116.562 394.203C114.452 404.7 112.686 407.87 110.887 415.314C108.842 423.733 108.639 430.663 108.232 444.534C108.167 446.762 108.178 454.421 108.21 469.641C108.21 472.405 108.232 480.32 108.242 483.052C109.881 483.234 111.519 483.416 113.157 483.598C112.697 488.3 112.225 493.013 111.765 497.715C111.358 497.683 110.951 497.64 110.544 497.608C110.17 502.546 109.795 507.484 109.42 512.432C109.035 515.014 108.649 517.595 108.275 520.176C111.305 521.387 115.866 522.811 121.498 523.036C128.457 523.315 128.382 521.408 135.909 521.365C144.079 521.312 147.366 523.54 156.659 522.576C158.533 522.383 160.053 522.115 161.006 521.933C161.081 523.85 161.081 525.96 160.942 528.242C160.781 530.813 160.482 533.158 160.107 535.247C167.077 537.518 173.03 537.989 177.741 537.775C181.821 537.593 182.816 537.004 187.999 536.639C195.344 536.125 195.89 537.121 205.462 537.25C205.462 537.25 219.616 537.432 227.422 534.283C229.188 533.565 230.869 532.698 230.869 532.698C231.008 532.623 231.137 532.558 231.276 532.483C232.443 527.128 231.383 524.525 230.131 523.143C226.222 518.805 218.256 523.925 208.577 519.512C205.879 518.281 205.644 517.488 199.798 512.668C195.643 509.24 189.84 504.763 182.42 499.911C184.208 499.547 187.5 490 187.5 490L178.673 466L177.77 427.5L149.993 393.624L151.5 411.5L148.5 432L155 477.5L156.659 501.5L128 482.5L129.5 449.5C129.5 449.5 134.5 417.5 137.5 414.5C140.5 411.5 147.5 389.5 147.5 389.5C147.5 389.5 176.671 438.9 178.673 425.479C180.439 413.622 183.48 406.885 182.538 393.624C182.399 391.718 182.356 392.071 180.193 378.875C177.163 360.345 176.96 357.828 175.279 348.102C174.24 342.072 172.623 333.235 170.3 322.417C170.739 307.839 171.167 293.261 171.606 278.694C173.448 278.233 175.621 277.333 177.056 275.405C180.45 270.853 176.639 264.748 176.703 254.679C176.724 251.284 177.185 246.999 178.801 242.029C190.525 239.48 202.25 236.931 213.974 234.382C215.719 231.479 217.464 228.576 219.199 225.684C223.407 227.527 227.604 229.358 231.811 231.201C228.76 245.296 225.709 259.382 222.657 273.477C227.807 275.716 232.946 277.965 238.096 280.204C236.5 314.5 240.538 337.209 241.79 352.858C242.358 360.023 244.007 368.71 242.283 380.128C241.683 384.102 240.688 388.515 239.574 396.988C239.574 396.988 238.717 403.5 238.107 410.837C237.208 421.741 237.069 446.484 239.189 479.121C240.527 479.474 241.865 479.838 243.204 480.192C243.803 482.816 243.9 485.012 243.868 486.576C243.814 488.964 243.76 491.824 242.133 492.627C241.673 492.852 241.202 492.863 240.859 492.831C237.861 500.2 236.79 504.302 236.415 506.723C236.298 507.505 236.223 508.266 235.912 509.487C235.088 512.646 233.974 513.525 233.857 516.042C233.814 516.91 233.782 518.12 234.552 518.88C235.323 519.619 236.501 519.555 236.962 519.523C238.996 519.405 257.187 518.323 264.95 518.591C271.534 518.816 271.02 520.037 275.11 519.555C282.53 518.677 288.13 514.221 291.738 510.536C299.715 508.78 306.107 508.448 310.518 508.469C313.87 508.491 315.411 508.715 317.906 508.308C324.769 507.184 329.716 502.771 332.842 499.215C332.939 498.133 332.714 497.394 332.521 496.955C330.894 493.281 324.769 494.652 313.923 491.363C312.66 490.978 312.778 490.967 306.439 488.921C303.495 487.968 301.096 487.208 299.544 486.715C298.891 481.488 298.238 476.261 297.584 471.034C293.58 471.966 289.565 472.887 285.56 473.819C286.128 476.014 286.578 479.174 285.56 482.559C284.918 484.69 283.944 486.094 283.558 486.672C281.738 489.446 279.875 494.33 279.725 503.628C276.813 502.632 273.644 501.368 270.303 499.782C265.496 497.49 261.395 494.995 257.99 492.638C257.872 487.411 257.765 482.184 257.647 476.946C258.193 476.657 258.74 476.357 259.286 476.068C258.065 462.079 257.808 444.502 260.57 424.547C262.551 410.259 265.656 397.705 268.975 387.155C269.639 411.887 272.776 438.161 279.565 465.4C280.207 467.97 280.871 470.509 281.556 473.015C283.676 473.315 286.546 473.487 289.875 473.026C294.201 472.426 297.563 471.012 299.747 469.888C297.916 455.299 296.578 442.863 295.614 433.213C293.869 415.775 293.526 409.166 293.741 401.261C294.019 391.257 295.079 383.674 295.764 378.811C298.559 359.209 301.375 357.721 303.655 341.118C305.561 327.258 305.293 315.904 305.111 308.203C304.897 299.195 304.212 291.494 303.516 285.56C305.593 285.035 307.67 284.51 309.737 283.985C307.178 274.677 304.63 265.38 302.071 256.072C306.375 256.457 310.679 256.843 314.994 257.229C315.09 257.721 315.176 258.214 315.272 258.707C316.964 259.328 319.887 260.131 323.527 259.874C326.086 259.692 328.153 259.049 329.577 258.471C329.77 256.35 329.962 254.219 330.155 252.098C331.311 251.937 333.988 251.38 336.076 249.152C339.234 245.789 338.935 240.83 337.65 237.702C337.329 236.92 336.044 234.06 332.982 232.261C332.093 231.736 331.268 231.436 330.68 231.254C330.583 229.112 330.487 226.959 330.38 224.817C328.528 223.981 324.737 222.578 319.801 222.857C314.608 223.156 310.861 225.17 309.137 226.241C309.651 230.429 310.176 234.617 310.69 238.805C306.664 238.141 302.627 237.467 298.602 236.802C298.387 234.21 298.173 231.618 297.959 229.026C299.758 229.647 301.567 230.258 303.366 230.879C310.486 222.471 317.606 214.052 324.727 205.644C316.943 202.613 309.159 199.571 301.375 196.539C299.929 197.91 298.484 199.281 297.038 200.652C295.593 194.408 293.452 185.143 290.796 173.778C287.156 158.161 286.888 157.144 285.775 154.873C280.517 144.14 272.444 138.153 274.532 133.344C274.789 132.754 276.085 129.755 278.58 129.145C279.693 128.877 280.421 129.241 281.481 128.706C283.012 127.945 283.558 126.178 283.847 125.31C284.586 123.082 285.914 120.03 288.451 115.681C289.586 115.338 290.721 114.995 291.845 114.653C289.212 108.151 289.597 103.856 290.486 101.103C290.925 99.732 291.61 98.3502 291.963 95.9724C292.456 92.5769 291.888 89.6742 291.321 87.7569C263.012 76.0818 253.161 77.9991 249.553 82.2086C245.227 87.2535 250.335 95.0405 248.097 118.873C247.54 124.775 247.058 129.691 245.174 135.989C241.705 147.6 236.405 154.091 232.068 160.978C227.208 168.69 221.383 180.376 217.85 197.203C207.946 198.542 198.042 199.87 188.138 201.209C186.724 188.12 183.748 178.03 181.35 171.379C179.24 165.541 177.356 161.782 174.551 156.19C169.925 146.957 168.137 145.276 166.788 144.237C163.48 141.709 161.242 141.88 153.511 139.267C148.308 137.499 144.218 135.7 141.648 134.49C141.659 133.568 141.67 132.658 141.68 131.737C142.965 132.24 145.449 132.979 147.762 131.93C150.171 130.837 151.167 128.374 151.606 127.302C153.672 122.204 155.867 105.645 157.323 83.2047C146.648 76.146 133.843 74.9464 124.26 80.5269Z" fill="white"/>
<path d="M349.403 261.416C348.086 259.521 349.424 255.761 352.123 248.231C353.557 244.214 354.296 242.972 354.906 239.951C355.645 236.277 355.549 233.15 355.356 231.093C347.326 230.815 343.289 227.644 341.683 226.112C337.015 221.689 336.298 215.508 335.12 204.058C334.467 197.664 334.456 192.672 334.499 188.109C334.692 170.554 335.816 172.61 335.741 158.504C335.698 150.813 335.27 146.582 337.84 141.109C338.225 140.295 340.013 136.61 343.782 133.022C349.681 127.409 356.62 125.663 363.386 123.96C366.727 123.125 369.511 122.675 371.32 122.439C371.599 119.772 371.738 115.938 370.935 111.428C370.399 108.397 369.564 103.706 366.545 99.1962C362.176 92.6624 358.001 93.6478 355.945 88.7421C353.247 82.3369 357.241 73.2538 360.667 72.9539C364.425 72.6326 366.084 83.0117 370.913 83.0438C375.335 83.0759 375.325 74.3999 382.306 71.6471C386.535 69.9869 388.88 72.2362 402.97 74.0036C406.364 74.432 409.191 74.6677 411.107 74.8069C410.186 77.7204 408.966 82.2083 408.259 87.8317C407.242 95.9186 408.313 98.1679 406.311 103.781C405.358 106.437 403.259 112.071 397.831 114.899C396.449 115.616 395.186 115.981 394.329 116.184C394.04 117.823 393.751 119.472 393.462 121.111C400.711 121.507 405.54 124.014 407.938 125.503C418.656 132.165 421.739 144.183 422.992 149.024C423.934 152.688 424.255 155.805 424.384 157.861C435.765 156.854 447.136 155.837 458.518 154.83C457.372 163.816 456.226 172.803 455.081 181.79C455.563 181.329 455.927 181.244 456.184 181.276C458.421 181.586 460.659 191.623 457.051 199.388C455.573 202.559 453.443 204.669 451.976 205.89C451.89 206.554 450.744 215.541 450.744 215.541L423.774 220.243C425.465 233.717 427.157 247.192 428.859 260.667C412.285 260.602 399.383 261.063 390.4 261.534C380.849 262.027 371.17 260.624 361.695 262.016C356.512 262.798 351.191 263.966 349.403 261.416Z" fill="white"/>
<path d="M356.144 474.418C356.337 476.1 356.433 478.253 356.144 480.738C355.898 482.848 355.438 484.658 354.966 486.104C354.035 485.312 352.879 485.312 352.365 485.858C351.979 486.265 352.022 486.876 352.043 487.058C351.08 488.429 349.977 490.282 349.12 492.617C347.654 496.612 347.557 500.168 347.686 502.396C347.011 503.703 346.337 505.009 345.662 506.327C346.165 506.905 346.872 507.655 347.804 508.437C348.135 508.716 350.106 510.365 352.193 511.233C355.041 512.411 357.729 511.993 358.917 511.854C360.727 511.64 361.005 511.854 375.374 514.328C392.205 517.242 393.586 517.252 395.471 517.081C405.032 516.213 408.512 512.282 409.422 511.136C410.204 510.162 412.099 507.794 411.51 505.352C410.76 502.246 406.413 500.886 402.709 499.718C399.208 498.615 396.135 498.336 393.993 498.294C391.659 497.394 388.768 496.034 385.717 493.956C383.094 492.167 381.027 490.303 379.443 488.686C379.528 487.465 379.154 486.726 378.939 486.383C377.858 484.68 375.085 484.037 372.173 485.055C371.477 483.512 370.588 481.017 370.556 477.91C370.513 472.994 372.686 470.466 371.723 469.277C370.877 468.217 367.59 468.313 356.144 474.418Z" fill="white"/>
<path d="M434.917 462.336C435.431 463.943 435.945 466.042 436.149 468.538C436.32 470.659 436.213 472.522 436.031 474.033C434.96 473.433 433.825 473.658 433.429 474.301C433.129 474.772 433.29 475.361 433.354 475.543C432.669 477.075 431.951 479.11 431.566 481.563C430.902 485.772 431.502 489.275 432.058 491.438C431.652 492.852 431.245 494.266 430.838 495.68C431.437 496.141 432.283 496.74 433.354 497.34C433.729 497.554 435.988 498.786 438.204 499.225C441.224 499.836 443.783 498.893 444.918 498.518C446.813 497.908 451.727 497.854 461.545 497.747C475.604 497.597 476.118 498.658 481.824 497.447C490.262 495.648 492.799 492.552 493.827 490.849C494.298 490.078 496.097 487.122 495.037 484.53C493.998 481.98 490.733 481.145 485.229 479.795C481.685 478.928 478.698 478.564 476.696 478.392C474.233 477.964 471.128 477.192 467.734 475.746C464.811 474.504 462.423 473.079 460.56 471.794C460.25 471.323 459.533 470.38 458.248 469.77C456.256 468.827 454.382 469.384 453.944 469.534C452.487 468.195 450.592 466.021 449.746 462.957C448.494 458.437 450.442 455.288 449.211 454.26C448.162 453.392 444.96 454.121 434.917 462.336Z" fill="white"/>
<path d="M423.933 260.602C426.385 267.672 424.436 274.141 421.202 284.895C420.196 288.237 410.924 318.207 398.439 317.993C394.713 317.928 392.904 315.218 382.957 302.204C362.143 274.966 357.335 270.146 356.854 259.692" fill="white"/>
<path d="M423.481 261.781C426.993 280.889 428.652 296.131 429.53 306.8C430.023 312.809 430.483 320.049 431.661 333.042C432.079 337.637 432.871 346.12 434.081 357.206C437.282 386.565 438.888 401.24 441.661 413.568C443.546 421.912 446.801 434.187 452.604 448.711C449.767 451.893 445.323 456.134 439.092 459.583C434.948 461.865 431.115 463.193 428.031 463.986C426.8 456.016 424.455 443.827 419.691 429.635C413.598 411.469 409.701 408.384 404.283 390.464C401.489 381.221 401.607 379.014 396.285 353.607C393.244 339.094 390.6 327.376 388.887 319.921" fill="white"/>
<path d="M423.481 261.781C426.993 280.889 428.652 296.131 429.53 306.8C430.023 312.809 430.483 320.049 431.661 333.042C432.079 337.637 432.871 346.12 434.081 357.206C437.282 386.565 438.888 401.24 441.661 413.568C443.546 421.912 446.801 434.187 452.604 448.711C449.767 451.893 445.323 456.134 439.092 459.583C434.948 461.865 431.115 463.193 428.031 463.986C426.8 456.016 424.455 443.827 419.691 429.635C413.598 411.469 409.701 408.384 404.283 390.464C401.489 381.221 401.607 379.014 396.285 353.607C393.244 339.094 390.6 327.376 388.887 319.921" stroke="#1D1E1B" stroke-width="1.5" stroke-miterlimit="10" stroke-linecap="round" stroke-linejoin="round"/>
<path d="M357.065 264.833C353.949 309.917 352.846 344.021 352.429 367.285C352.407 368.614 352.364 371.034 352.022 394.138C351.765 411.351 351.144 453.681 350.908 470.262C352.161 471.59 355.362 474.611 360.491 475.832C367.354 477.46 372.836 474.697 374.239 473.936C377.772 465.292 382.205 452.439 384.646 436.329C385.235 432.42 385.813 427.643 386.38 417.435C388.714 375.672 397.216 334.488 398.768 327.247C401.092 316.472 404.754 301.348 410.482 283.364" fill="white"/>
<path d="M357.065 264.833C353.949 309.917 352.846 344.021 352.429 367.285C352.407 368.614 352.364 371.034 352.022 394.138C351.765 411.351 351.144 453.681 350.908 470.262C352.161 471.59 355.362 474.611 360.491 475.832C367.354 477.46 372.836 474.697 374.239 473.936C377.772 465.292 382.205 452.439 384.646 436.329C385.235 432.42 385.813 427.643 386.38 417.435C388.714 375.672 397.216 334.488 398.768 327.247C401.092 316.472 404.754 301.348 410.482 283.364" stroke="#1D1E1B" stroke-width="1.5" stroke-miterlimit="10" stroke-linecap="round" stroke-linejoin="round"/>
<path d="M365.589 268.518C364.561 275.962 363.543 283.406 362.516 290.851C367.58 290.54 372.644 290.24 377.709 289.93C380.321 283.942 382.934 277.954 385.536 271.978" stroke="#1D1E1B" stroke-width="1.5" stroke-miterlimit="10" stroke-linecap="round" stroke-linejoin="round"/>
<path d="M459.016 472.212C457.731 472.565 456.971 473.851 456.264 474.975C454.797 477.289 452.87 479.442 450.322 480.438C447.014 481.734 442.934 480.717 440.621 478.017C439.679 476.914 439.015 475.564 437.955 474.568C436.895 473.572 435.193 473.004 433.983 473.808C431.413 479.056 430.685 485.055 431.606 490.828C435.139 492.574 439.251 492.745 443.18 492.445C447.11 492.135 451.018 491.385 454.958 491.406C457.817 491.417 460.654 491.845 463.459 492.37C465.815 492.82 468.16 493.345 470.537 493.656C477.593 494.577 484.884 493.591 491.426 490.806C492.936 490.164 494.531 489.318 495.184 487.807C496.041 485.826 494.874 483.437 493.107 482.195C491.34 480.952 489.135 480.556 487.004 480.149C480.708 478.928 474.509 477.235 468.331 475.554C466.168 474.965 463.963 474.354 462.11 473.101C461.447 472.662 459.787 471.998 459.016 472.212Z" stroke="#1D1E1B" stroke-width="1.5" stroke-miterlimit="10" stroke-linecap="round" stroke-linejoin="round"/>
<path d="M455.44 475.801C454.958 475.511 454.402 475.361 453.963 475.019C453.299 474.505 453.01 473.626 453.01 472.78C453.01 471.945 453.267 471.12 453.513 470.327C453.609 470.038 453.706 469.727 453.941 469.545C454.113 469.417 454.327 469.363 454.541 469.32C456.329 468.988 458.181 469.567 459.723 470.531C461.265 471.495 462.539 472.823 463.792 474.13" stroke="#1D1E1B" stroke-width="1.5" stroke-miterlimit="10" stroke-linecap="round" stroke-linejoin="round"/>
<path d="M431.691 480.952C438.876 482.998 446.103 485.065 452.806 488.354C455.611 483.212 458.405 478.071 461.211 472.93" stroke="#1D1E1B" stroke-width="1.5" stroke-miterlimit="10" stroke-linecap="round" stroke-linejoin="round"/>
<path d="M431.658 487.271C433.35 487.571 435.084 487.475 436.808 487.496C438.532 487.518 440.288 487.657 441.862 488.364C443.425 489.071 444.785 490.453 445.053 492.156C445.063 492.241 445.224 492.113 445.128 492.081" stroke="#1D1E1B" stroke-width="1.5" stroke-miterlimit="10" stroke-linecap="round" stroke-linejoin="round"/>
<path d="M468.311 493.613C468.921 492.102 469.574 490.581 470.527 489.253C471.48 487.936 472.786 486.8 474.36 486.34C475.463 486.018 476.63 486.029 477.765 485.879C479.457 485.665 481.159 485.044 482.326 483.801C483.493 482.559 483.986 480.599 483.204 479.078" stroke="#1D1E1B" stroke-width="1.5" stroke-miterlimit="10" stroke-linecap="round" stroke-linejoin="round"/>
<path d="M491.373 481.241C491.608 481.948 491.844 482.773 491.437 483.405C491.201 483.78 490.784 483.994 490.388 484.197C489.167 484.819 487.957 485.429 486.737 486.051C485.163 486.843 483.546 487.657 481.79 487.796C480.034 487.936 478.096 487.229 477.293 485.676" stroke="#1D1E1B" stroke-width="1.5" stroke-miterlimit="10" stroke-linecap="round" stroke-linejoin="round"/>
<path d="M431.615 491.374C431.123 492.584 430.63 493.795 430.138 495.005C430.052 495.219 429.956 495.466 430.031 495.69C430.106 495.948 430.373 496.097 430.609 496.226C433.404 497.704 436.337 499.214 439.496 499.236C441.016 499.247 442.526 498.904 444.036 498.679C446.487 498.315 448.982 498.272 451.455 498.24C459.357 498.111 467.27 497.972 475.171 497.843C478.469 497.79 481.81 497.726 484.968 496.783C488.791 495.637 492.206 493.195 494.53 489.949C495.022 489.264 495.472 488.407 495.161 487.625" stroke="#1D1E1B" stroke-width="1.5" stroke-miterlimit="10" stroke-linecap="round" stroke-linejoin="round"/>
<path d="M377.375 487.679C376.058 487.85 375.127 489.028 374.27 490.046C372.504 492.134 370.298 494.009 367.643 494.651C364.184 495.487 360.287 493.923 358.36 490.924C357.578 489.703 357.096 488.278 356.186 487.143C355.266 486.008 353.67 485.215 352.353 485.847C349.088 490.699 347.556 496.547 347.674 502.385C350.94 504.602 354.987 505.33 358.917 505.566C368.178 506.112 367.932 505.545 370.726 506.145C371.776 506.369 374.281 507.366 379.26 509.347C386.187 512.1 385.363 511.939 386.476 512.271C392.708 514.146 397.515 512.925 406.927 510.525C408.458 510.14 410.16 509.551 411.06 508.062C412.184 506.209 411.338 503.692 409.764 502.214C408.19 500.746 406.541 499.932 404.004 499.354C396.113 497.565 395.567 499.343 392.023 497.918C388.746 496.601 385.299 493.484 380.298 488.975C379.87 488.578 378.746 487.496 377.375 487.679Z" stroke="#1D1E1B" stroke-width="1.5" stroke-miterlimit="10" stroke-linecap="round" stroke-linejoin="round"/>
<path d="M373.352 490.743C372.923 490.389 372.388 490.164 371.992 489.768C371.403 489.168 371.232 488.258 371.349 487.422C371.467 486.587 371.831 485.815 372.185 485.055C372.313 484.776 372.463 484.487 372.72 484.337C372.902 484.23 373.127 484.209 373.341 484.198C375.15 484.112 376.917 484.937 378.309 486.105C379.701 487.272 380.782 488.761 381.842 490.228" stroke="#1D1E1B" stroke-width="1.5" stroke-miterlimit="10" stroke-linecap="round" stroke-linejoin="round"/>
<path d="M349.119 492.617C355.961 495.626 362.835 498.658 369.034 502.824C372.514 498.111 375.983 493.398 379.463 488.696" stroke="#1D1E1B" stroke-width="1.5" stroke-miterlimit="10" stroke-linecap="round" stroke-linejoin="round"/>
<path d="M348.23 498.872C349.869 499.397 351.603 499.547 353.306 499.804C355.008 500.061 356.732 500.436 358.188 501.357C359.644 502.278 360.8 503.831 360.833 505.545C360.833 505.631 361.004 505.524 360.918 505.481" stroke="#1D1E1B" stroke-width="1.5" stroke-miterlimit="10" stroke-linecap="round" stroke-linejoin="round"/>
<path d="M383.662 510.15C384.476 508.737 385.322 507.323 386.457 506.134C387.581 504.956 389.037 504.013 390.643 503.767C391.778 503.595 392.934 503.767 394.08 503.777C395.868 503.799 397.624 503.552 398.887 502.331C399.241 501.999 400.172 500.971 400.311 498.893" stroke="#1D1E1B" stroke-width="1.5" stroke-miterlimit="10" stroke-linecap="round" stroke-linejoin="round"/>
<path d="M408.201 501.036C408.34 501.775 408.458 502.621 407.976 503.189C407.687 503.531 407.248 503.681 406.831 503.831C405.546 504.281 404.25 504.72 402.965 505.159C399.989 506.188 398.361 506.241 397.837 506.209C396.895 506.156 394.817 505.845 392.473 503.713" stroke="#1D1E1B" stroke-width="1.5" stroke-miterlimit="10" stroke-linecap="round" stroke-linejoin="round"/>
<path d="M347.621 502.921C346.968 504.056 346.315 505.181 345.662 506.316C345.544 506.52 345.426 506.745 345.458 506.98C345.501 507.248 345.737 507.43 345.951 507.58C348.521 509.423 351.219 511.318 354.345 511.779C355.855 511.993 357.386 511.865 358.917 511.854C358.917 511.854 362.129 511.94 366.337 512.422C375.32 513.461 380.385 516.813 390.321 517.21C394.068 517.36 397.205 517.038 400.257 516.213C403.233 515.41 407.827 514.103 410.139 510.076C410.653 509.198 410.932 508.394 411.082 507.859" stroke="#1D1E1B" stroke-width="1.5" stroke-miterlimit="10" stroke-linecap="round" stroke-linejoin="round"/>
<path d="M354.967 486.104C355.438 484.669 355.898 482.858 356.145 480.738C356.434 478.253 356.337 476.089 356.145 474.418" stroke="#1D1E1B" stroke-width="1.5" stroke-miterlimit="10" stroke-linecap="round" stroke-linejoin="round"/>
<path d="M372.003 485.097C371.382 483.705 370.643 481.552 370.6 478.874C370.579 477.707 370.686 476.668 370.847 475.79" stroke="#1D1E1B" stroke-width="1.5" stroke-miterlimit="10" stroke-linecap="round" stroke-linejoin="round"/>
<path d="M435.57 473.454C435.719 472.33 435.794 471.012 435.709 469.556C435.537 466.321 434.649 463.707 433.867 461.929" stroke="#1D1E1B" stroke-width="1.5" stroke-miterlimit="10" stroke-linecap="round" stroke-linejoin="round"/>
<path d="M452.903 469.384C451.704 468.099 450.258 466.289 448.995 463.911C447.207 460.547 446.532 457.43 446.254 455.32" stroke="#1D1E1B" stroke-width="1.5" stroke-miterlimit="10" stroke-linecap="round" stroke-linejoin="round"/>
<path d="M311.662 227.012C314.018 227.344 316.876 227.569 320.099 227.441C322.937 227.323 325.453 226.969 327.583 226.53" stroke="#1D1D1B" stroke-width="1.5" stroke-miterlimit="10" stroke-linecap="round" stroke-linejoin="round"/>
<path d="M231.799 231.211C228.748 245.307 225.696 259.392 222.645 273.488C228.501 276.53 235.268 279.454 242.924 281.832C270.344 290.326 294.895 287.284 309.714 283.985C307.315 276.798 305.024 268.904 303.011 260.345C300.431 249.367 298.75 239.105 297.658 229.808" stroke="#1D1D1B" stroke-width="1.5" stroke-miterlimit="10" stroke-linecap="round" stroke-linejoin="round"/>
<path d="M286.413 287.166C284.968 311.866 281.766 331.564 278.907 345.553C275.481 362.359 270.31 381.939 268.918 387.176C263.918 406.092 264.143 403.554 262.654 410.259C259.207 425.811 259.346 438.975 259.164 460.815C259.11 467.178 259.174 472.458 259.239 476.079C256.915 477.439 253.232 479.164 248.5 479.721C244.677 480.17 241.444 479.699 239.174 479.142C236.947 461.404 235.062 434.766 238.713 402.718C239.474 396.013 240.876 391.45 241.69 382.399C243.735 359.713 240.502 347.16 238.703 324.741C237.868 314.383 237.14 299.131 238.082 280.226" stroke="#1D1D1B" stroke-width="1.5" stroke-miterlimit="10" stroke-linecap="round" stroke-linejoin="round"/>
<path d="M283.965 101.167C283.794 102.367 283.622 103.567 283.451 104.766" stroke="#1D1D1B" stroke-width="1.5" stroke-miterlimit="10" stroke-linecap="round" stroke-linejoin="round"/>
<path d="M380.617 227.783C375.338 228.736 370.06 229.69 364.781 230.654" stroke="#1D1D1B" stroke-width="1.5" stroke-miterlimit="10" stroke-linecap="round" stroke-linejoin="round"/>
<path d="M451.954 205.922C451.536 209.136 451.129 212.36 450.712 215.573C433.57 218.561 416.417 221.55 399.275 224.538" stroke="#1D1D1B" stroke-width="1.5" stroke-miterlimit="10" stroke-linecap="round" stroke-linejoin="round"/>
<path d="M454.922 182.443C456.11 173.253 457.299 164.063 458.487 154.873L370.679 162.671L364.769 230.654C355.925 226.198 347.081 221.753 338.227 217.297C347.649 215.102 357.071 212.917 366.493 210.721" stroke="#1D1D1B" stroke-width="1.5" stroke-miterlimit="10" stroke-linecap="round" stroke-linejoin="round"/>
<path d="M367.424 99.389C369.094 103.77 370.679 109.093 371.6 115.242C371.674 115.766 372.017 116.784 371.974 118.166C371.889 121.583 369.972 124.26 368.495 125.878C370.058 127.763 372.488 130.151 376.011 131.929C385.765 136.867 395.722 133.065 397.682 132.272C396.611 131.073 393.394 124.463 393.394 119.105" stroke="#1D1D1B" stroke-width="1.5" stroke-miterlimit="10" stroke-linecap="round" stroke-linejoin="round"/>
<path d="M377.32 108.299C380.89 112.581 384.6 114.955 387.03 116.238C389.782 117.703 392.072 118.85 394.75 118.509C399.416 117.93 402.201 113.172 403.867 110.241C407.62 103.62 407.136 98.8163 409.211 86.5053C410.093 81.2925 411.609 73.5658 411.073 69.2797" stroke="#1D1D1B" stroke-width="1.5" stroke-miterlimit="10" stroke-linecap="round" stroke-linejoin="round"/>
<path d="M390.178 83.2094C390.263 84.6554 390.36 86.1121 390.445 87.5581" stroke="#1D1D1B" stroke-width="1.5" stroke-miterlimit="10" stroke-linecap="round" stroke-linejoin="round"/>
<path d="M404.732 83.9169C404.678 85.2986 404.636 86.6911 404.582 88.0728" stroke="#1D1D1B" stroke-width="1.5" stroke-miterlimit="10" stroke-linecap="round" stroke-linejoin="round"/>
<path d="M398.75 96.4913C399.103 96.6199 400.024 96.9198 401.159 96.6949C402.572 96.4164 403.354 95.5381 403.557 95.2917C402.744 94.649 401.984 93.4635 401.159 91.739C399.51 88.2901 400.206 85.1161 400.538 84.2806" stroke="#1D1D1B" stroke-width="1.5" stroke-miterlimit="10" stroke-linecap="round" stroke-linejoin="round"/>
<path d="M392.857 106.059C394.284 106.416 395.717 106.773 397.144 107.13" stroke="#1D1D1B" stroke-width="1.5" stroke-miterlimit="10" stroke-linecap="round" stroke-linejoin="round"/>
<path d="M370.295 122.611C360.509 124.164 343.067 128.384 337.842 141.12C336.632 144.065 336.461 146.539 336.354 148.189C332.425 211.342 334.545 222.224 342.425 226.562C342.8 226.766 344.395 227.323 347.596 228.437C370.798 236.534 375.616 237.038 379.385 236.845C381.901 236.716 387.437 236.47 391.987 232.925C393.262 231.939 395.521 229.872 397.127 226.134" stroke="#1D1D1B" stroke-width="1.5" stroke-miterlimit="10" stroke-linecap="round" stroke-linejoin="round"/>
<path d="M394.125 121.422C398.001 121.561 405.935 122.461 412.241 128.299C416.01 131.78 417.712 135.647 419.672 140.092C422.777 147.129 423.912 153.491 424.372 157.915" stroke="#1D1D1B" stroke-width="1.5" stroke-miterlimit="10" stroke-linecap="round" stroke-linejoin="round"/>
<path d="M358.998 172.043C360.518 184.865 361.578 197.739 362.189 210.636" stroke="#1D1D1B" stroke-width="1.5" stroke-miterlimit="10" stroke-linecap="round" stroke-linejoin="round"/>
<path d="M355.519 231.757C355.755 233.321 355.926 235.677 355.466 238.462C355.07 240.84 354.341 242.715 353.731 244C353.731 244 350.262 251.412 349.406 261.416C349.384 261.716 349.406 262.273 349.952 262.744C350.412 263.151 351.226 263.344 352.039 263.419C356.601 263.858 360.669 261.288 365.22 260.538C369.138 259.885 373.132 260.613 377.051 260.988C379.985 261.266 382.983 261.331 385.97 261.406C386.548 261.416 395.842 261.855 404.343 261.845C410.371 261.845 418.669 261.62 428.83 260.709C428.53 258.567 428.241 256.425 427.952 254.272C426.442 243.047 425.082 231.939 423.862 220.95" stroke="#1D1D1B" stroke-width="1.5" stroke-miterlimit="10" stroke-linecap="round" stroke-linejoin="round"/>
<path d="M115.136 99.3782C115.618 98.0393 116.828 96.3683 118.391 96.2291C120.714 96.0149 123.519 99.2282 124.654 104.659C125.8 104.22 127.417 103.363 128.391 101.66C129.601 99.5281 128.937 97.6001 130.233 96.4005C131.517 95.2223 133.605 95.9078 134.408 95.9399C141.711 96.2398 149.077 93.1015 154.12 87.5531C159.163 81.994 161.797 74.1213 161.165 66.4736C161.058 67.7589 160.126 68.9157 158.938 69.237C158.831 68.1659 158.692 67.0305 157.996 66.2379C157.3 65.4453 155.854 65.3382 155.383 66.2808C154.602 62.5533 151.325 59.5649 147.696 59.2864C146.143 59.1686 144.601 59.5006 143.07 59.8219C137.117 61.0859 131.153 62.3712 125.19 63.6458C123.305 64.0528 121.357 64.4813 119.772 65.6274C118.059 66.8592 116.945 68.7979 115.928 70.7045C113.134 75.9743 110.714 81.5334 109.557 87.4353C108.401 93.3371 108.572 99.646 110.8 105.205C111.303 106.448 112.298 109.929 115.104 113.003C116.378 114.395 117.909 116.216 119.344 115.756C121.057 115.209 121.335 111.846 121.346 111.696C116.303 107.861 113.883 102.881 115.136 99.3782Z" fill="#1D1D1B" stroke="#1D1D1B" stroke-width="1.5" stroke-miterlimit="10" stroke-linecap="round" stroke-linejoin="round"/>
<path d="M157.302 83.1937C156.809 90.488 155.578 106.78 153.094 121.325C152.559 124.464 151.552 130.184 147.741 131.919C146.252 132.604 144.7 132.497 141.659 131.726C138.158 130.848 133.147 129.198 127.344 125.888" stroke="#1D1D1B" stroke-width="1.5" stroke-miterlimit="10" stroke-linecap="round" stroke-linejoin="round"/>
<path d="M119.354 115.756C121.474 118.776 122.041 122.75 121.666 126.488C121.281 130.216 120.039 133.783 118.797 137.307C125.746 141.623 134.022 143.53 142.052 142.651C141.999 139.277 141.945 135.914 141.892 132.54" stroke="#1D1D1B" stroke-width="1.5" stroke-miterlimit="10" stroke-linecap="round" stroke-linejoin="round"/>
<path d="M148.681 103.127C148.531 105.944 148.734 108.794 149.291 111.546C149.355 111.868 149.42 112.221 149.27 112.5C149.163 112.692 148.991 112.799 148.809 112.896C147.942 113.367 147.032 113.71 146.09 113.913" stroke="#1D1D1B" stroke-width="1.5" stroke-miterlimit="10" stroke-linecap="round" stroke-linejoin="round"/>
<path d="M141.768 99.5497C141.671 100.535 141.575 101.531 141.479 102.517" stroke="#1D1D1B" stroke-width="1.5" stroke-miterlimit="10" stroke-linecap="round" stroke-linejoin="round"/>
<path d="M152.471 100.161C152.374 101.146 152.278 102.142 152.182 103.128" stroke="#1D1D1B" stroke-width="1.5" stroke-miterlimit="10" stroke-linecap="round" stroke-linejoin="round"/>
<path d="M139.84 120.597C140.429 120.972 141.007 121.358 141.596 121.732" stroke="#1D1D1B" stroke-width="1.5" stroke-miterlimit="10" stroke-linecap="round" stroke-linejoin="round"/>
<path d="M171.5 258.5C171.5 258.5 170.5 267 166.5 267C162.5 267 137.222 258.204 123.5 247.5C120.015 244.781 115.212 241.205 112.428 238.666C110.318 236.749 108.188 234.8 106.678 232.347C103.027 226.402 103.477 218.272 99.2689 212.735C98.2624 211.406 96.999 210.239 96.3673 208.675C95.4572 206.383 96.1103 203.78 96.378 201.306C97.3523 192.619 93.4657 184.093 93.4014 175.342C93.3479 168.915 95.3501 162.681 97.3202 156.598C98.4551 153.116 99.3973 150.642 101.014 148.007C102.684 145.297 107.588 138.474 119.559 135.036" stroke="#1D1D1B" stroke-width="1.5" stroke-miterlimit="10" stroke-linecap="round" stroke-linejoin="round"/>
<path d="M165 255.5C164.887 258.854 165.174 267.803 167.449 266.849" stroke="#1D1D1B" stroke-width="1.5"/>
<path d="M142.73 134.715C148.941 136.9 155.14 139.085 161.35 141.259C162.699 141.731 164.059 142.213 165.258 143.016C167.506 144.526 168.727 146.486 169.327 147.482C178.738 163.217 182.421 175.481 182.421 175.481C184.381 182.015 186.586 190.702 188.117 201.199" stroke="#1D1D1B" stroke-width="1.5" stroke-miterlimit="10" stroke-linecap="round" stroke-linejoin="round"/>
<path d="M148.297 248.681L172.602 203.47L236.437 194.172L213.952 234.403L148.297 248.681Z" stroke="#1D1D1B" stroke-width="1.5" stroke-miterlimit="10" stroke-linecap="round" stroke-linejoin="round"/>
<path d="M148.298 248.681L114.967 230.482L165.033 217.543" stroke="#1D1D1B" stroke-width="1.5" stroke-miterlimit="10" stroke-linecap="round" stroke-linejoin="round"/>
<path d="M109.75 237.617C109.375 241.944 106.452 245.286 104.375 248.917C102.362 252.452 101.088 256.522 100.671 260.721C100.51 262.37 100.489 264.105 101.056 265.626C102.405 269.247 106.41 270.393 108.637 273.381C110.339 275.673 110.864 278.865 112.502 281.222C115.168 285.056 120.082 285.688 124.279 284.799C128.477 283.91 132.46 281.821 136.7 281.318C140.254 280.9 143.83 281.607 147.396 281.821C153.392 282.186 159.366 281.136 165.298 280.086C169.088 279.422 172.985 278.705 176.315 276.498C176.904 276.112 177.493 275.641 177.814 274.966C178.103 274.356 178.157 273.627 178.189 272.931C178.489 266.815 177.975 260.646 176.679 254.701" stroke="#1D1D1B" stroke-width="1.5" stroke-miterlimit="10" stroke-linecap="round" stroke-linejoin="round"/>
<path d="M122.404 170.725C123.732 174.849 125.017 179.144 126.227 183.632C128.936 193.636 130.916 203.158 132.351 212.027" stroke="#1D1D1B" stroke-width="1.5" stroke-miterlimit="10" stroke-linecap="round" stroke-linejoin="round"/>
<path d="M168.852 165.316C171.796 174.196 173.895 183.386 175.126 192.694" stroke="#1D1D1B" stroke-width="1.5" stroke-miterlimit="10" stroke-linecap="round" stroke-linejoin="round"/>
<path d="M292.583 90.788C292.561 93.0266 292.229 94.7725 291.93 95.9722C291.094 99.2712 290.024 100.107 289.831 102.859C289.713 104.455 290.045 106.041 290.366 107.615C290.848 109.961 291.33 112.307 291.823 114.652C291.555 114.877 291.169 115.134 290.677 115.349C289.735 115.745 288.889 115.723 288.428 115.681C288.225 116.184 287.957 116.859 287.615 117.662C287.047 118.969 286.587 119.933 286.426 120.276C283.632 126.124 283.289 127.816 281.458 128.705C280.923 128.962 279.981 129.284 278.557 129.145" stroke="#1D1D1B" stroke-width="1.5" stroke-miterlimit="10" stroke-linecap="round" stroke-linejoin="round"/>
<path d="M266.853 91.8269C267.185 92.416 267.742 93.2086 268.684 93.712C272.838 95.9614 278.074 89.0206 286.415 88.8278C289.134 88.7635 291.319 89.4383 292.55 89.8989C293.075 87.7352 293.481 84.6183 292.539 81.2121C289.916 71.7435 278.727 66.8699 270.815 66.088C259.262 64.9526 246.103 71.6685 240.974 82.1012C233.544 97.2146 247.035 111.642 237.955 125.728C236.51 127.966 234.465 131.929 232.955 137.585C231.852 141.73 232.238 146.689 235.428 149.571C236.981 147.546 238.523 145.522 240.075 143.497C241.135 146.754 242.741 149.828 244.808 152.559C245.857 150.374 246.895 148.2 247.945 146.015C248.576 148.853 250.065 151.488 252.174 153.491C252.988 151.691 253.791 149.892 254.604 148.103C255.418 151.52 256.992 154.744 259.176 157.486C260.268 154.412 261.093 151.242 261.628 148.028C263.298 152.259 265.879 156.137 269.155 159.296C268.288 152.527 268.502 145.608 269.798 138.902C271.093 146.111 276.522 152.42 283.449 154.798C281.361 139.963 278.106 128.491 275.408 120.533C272.881 113.099 269.509 104.798 266.853 91.8269C265.718 86.2571 265.065 81.5977 264.701 78.4272Z" fill="#1D1D1B"/>
<path d="M266.853 91.8269C267.185 92.416 267.742 93.2086 268.684 93.712C272.838 95.9614 278.074 89.0206 286.415 88.8278C289.134 88.7635 291.319 89.4383 292.55 89.8989C293.075 87.7352 293.481 84.6183 292.539 81.2121C289.916 71.7435 278.727 66.8699 270.815 66.088C259.262 64.9526 246.103 71.6685 240.974 82.1012C233.544 97.2146 247.035 111.642 237.955 125.728C236.51 127.966 234.465 131.929 232.955 137.585C231.852 141.73 232.238 146.689 235.428 149.571C236.981 147.546 238.523 145.522 240.075 143.497C241.135 146.754 242.741 149.828 244.808 152.559C245.857 150.374 246.895 148.2 247.945 146.015C248.576 148.853 250.065 151.488 252.174 153.491C252.988 151.691 253.791 149.892 254.604 148.103C255.418 151.52 256.992 154.744 259.176 157.486C260.268 154.412 261.093 151.242 261.628 148.028C263.298 152.259 265.879 156.137 269.155 159.296C268.288 152.527 268.502 145.608 269.798 138.902C271.093 146.111 276.522 152.42 283.449 154.798C281.361 139.963 278.106 128.491 275.408 120.533C272.881 113.099 269.509 104.798 266.853 91.8269ZM266.853 91.8269C265.718 86.2571 265.065 81.5977 264.701 78.4272" stroke="#1D1D1B" stroke-width="1.5" stroke-miterlimit="10" stroke-linecap="round" stroke-linejoin="round"/>
<path d="M272.123 212.991C278.162 217.061 285.378 219.257 292.605 219.214C294.533 219.204 296.46 219.043 298.387 218.871C301.225 218.625 309 216 309 218C309 220 298.28 223.102 293.408 223.488" stroke="#1D1D1B" stroke-width="1.5" stroke-miterlimit="10" stroke-linecap="round" stroke-linejoin="round"/>
<path d="M307 220C309.5 222 302.799 224.795 300.037 225.695C297.264 226.605 294.33 226.926 291.418 226.916" stroke="#1D1D1B" stroke-width="1.5" stroke-miterlimit="10" stroke-linecap="round" stroke-linejoin="round"/>
<path d="M219.189 225.695C223.419 226.444 226.674 227.773 229.083 229.058C231.577 230.386 232.37 231.157 234.907 232.561C237.905 234.221 241.246 235.185 244.597 235.913C251.353 237.391 258.291 238.023 265.197 237.766C266.953 237.702 268.966 237.434 269.908 235.956C270.337 235.292 270.454 234.478 270.572 233.696C271.718 225.566 272.232 217.34 272.114 209.125C266.568 209.521 261.011 209.917 255.465 210.313C253.066 210.485 250.614 210.646 248.312 209.96C244.576 208.835 241.76 207.079 240.079 205.633" stroke="#1D1D1B" stroke-width="1.5" stroke-miterlimit="10" stroke-linecap="round" stroke-linejoin="round"/>
<path d="M240.889 145.704C235.225 154.519 229.283 165.37 224.186 178.234C221.552 184.896 219.475 191.258 217.826 197.192" stroke="#1D1D1B" stroke-width="1.5" stroke-miterlimit="10" stroke-linecap="round" stroke-linejoin="round"/>
<path d="M256.478 167.202C254.979 175.374 252.677 181.437 250.803 185.528C249.122 189.202 247.431 192.062 246.178 196.914C244.936 201.724 244.786 205.879 244.85 208.664" stroke="#1D1D1B" stroke-width="1.5" stroke-miterlimit="10" stroke-linecap="round" stroke-linejoin="round"/>
<path d="M282.348 147.835C286.373 154.787 288.397 160.839 289.5 165.166C291.716 173.885 291.192 179.422 294.286 191.494C295.282 195.382 296.288 198.542 297.005 200.631" stroke="#1D1D1B" stroke-width="1.5" stroke-miterlimit="10" stroke-linecap="round" stroke-linejoin="round"/>
<path d="M330.24 236.931C330.272 232.892 330.304 228.844 330.336 224.806C327.702 223.767 321.482 221.764 314.437 223.852C312.306 224.484 310.518 225.363 309.094 226.241C311.139 237.059 313.184 247.888 315.24 258.706C316.942 259.092 319.094 259.435 321.567 259.456C324.801 259.488 327.531 258.995 329.533 258.471C329.726 256.35 329.919 254.218 330.112 252.098" stroke="#1D1D1B" stroke-width="1.5" stroke-miterlimit="10" stroke-linecap="round" stroke-linejoin="round"/>
<path d="M319.682 224.912C319.596 220.746 319.521 216.579 319.436 212.402" stroke="#1D1D1B" stroke-width="1.5" stroke-miterlimit="10" stroke-linecap="round" stroke-linejoin="round"/>
<path d="M289.197 231.082C291.424 230.964 293.641 230.589 295.846 230.225C296.457 230.118 297.067 230.022 297.656 229.808C298.641 229.454 299.572 228.715 299.808 227.697C299.947 227.119 299.797 226.423 299.294 226.101" stroke="#1D1D1B" stroke-width="1.5" stroke-miterlimit="10" stroke-linecap="round" stroke-linejoin="round"/>
<path d="M273.428 213.902C276.929 213.495 280.462 213.281 283.985 213.27" stroke="#1D1D1B" stroke-width="1.5" stroke-miterlimit="10" stroke-linecap="round" stroke-linejoin="round"/>
<path d="M280.934 217.351C287.572 210.517 294.21 203.694 300.849 196.86C300.988 196.721 301.138 196.571 301.33 196.518C301.534 196.464 301.748 196.55 301.951 196.625C309.532 199.624 317.102 202.623 324.682 205.622C317.648 213.345 311.009 221.432 304.778 229.819C304.403 230.322 303.943 230.868 303.322 230.858C303.065 230.858 302.829 230.75 302.594 230.654C301.384 230.14 300.185 229.615 298.975 229.101" stroke="#1D1D1B" stroke-width="1.5" stroke-miterlimit="10" stroke-linecap="round" stroke-linejoin="round"/>
<path d="M270.998 230.783C275.88 231.425 280.313 234.221 285.217 234.692C287.615 234.917 290.024 234.585 292.391 234.114C293.322 233.932 294.307 233.696 294.982 233.032C295.656 232.357 295.838 231.104 295.099 230.504" stroke="#1D1D1B" stroke-width="1.5" stroke-miterlimit="10" stroke-linecap="round" stroke-linejoin="round"/>
<path d="M298.953 236.181C300.613 236.695 302.422 237.177 304.36 237.606C306.898 238.163 309.275 238.516 311.448 238.752" stroke="#1D1D1B" stroke-width="1.5" stroke-miterlimit="10" stroke-linecap="round" stroke-linejoin="round"/>
<path d="M302.037 256.072C304.403 256.157 306.887 256.307 309.478 256.564C311.374 256.746 313.204 256.971 314.95 257.228" stroke="#1D1D1B" stroke-width="1.5" stroke-miterlimit="10" stroke-linecap="round" stroke-linejoin="round"/>
<path d="M331.376 231.415C331.644 231.908 332.254 233.139 331.965 234.543C331.955 234.596 331.848 235.11 331.558 235.614C330.83 236.899 330.671 237.847 325.5 238.5C322.684 238.853 317.324 237.572 316.999 238.773C316.673 239.975 322.886 241.301 326.173 241.291C328.989 241.28 331.216 240.209 332.554 239.395" stroke="#1D1D1B" stroke-width="1.5" stroke-miterlimit="10" stroke-linecap="round" stroke-linejoin="round"/>
<path d="M332.564 239.395C330.819 240.691 328.999 241.5 325.999 242C322.999 242.5 315.499 240.5 314.999 241.5C314.499 242.5 319.921 245.029 322.96 245.265C325.999 245.5 328.656 245.018 329.662 244.697C330.83 244.333 332.478 243.669 334.299 242.448" stroke="#1D1D1B" stroke-width="1.5" stroke-miterlimit="10" stroke-linecap="round" stroke-linejoin="round"/>
<path d="M321.002 245C318.336 245.343 317.02 244.596 317 246C316.98 247.404 322.769 249.003 326.516 249.174C328.026 249.249 329.546 249.302 331.399 248.585C333.401 247.814 334.782 246.55 335.553 245.725" stroke="#1D1D1B" stroke-width="1.5" stroke-miterlimit="10" stroke-linecap="round" stroke-linejoin="round"/>
<path d="M334.374 246.839C333.496 247.503 332.158 248.392 330.402 249.067C326.365 250.609 323.072 248.919 323.036 250.459C322.999 252 325.083 252.254 327 252.5C327.685 252.586 329.749 252.27 332.393 251.241C333.561 250.791 337.233 249.356 338.422 245.682C338.7 244.836 338.753 244.129 338.807 243.379C338.85 242.812 339.032 240.037 337.704 236.91C337.265 235.881 336.751 234.671 335.616 233.536C334.021 231.95 332.244 231.543 331.408 231.415" stroke="#1D1D1B" stroke-width="1.5" stroke-miterlimit="10" stroke-linecap="round" stroke-linejoin="round"/>
<path d="M157.195 75.4823C157.023 82.6481 156.852 89.8138 156.67 96.9796C157.548 96.1976 160.91 93.0271 161.574 87.693C162.163 82.948 160.246 79.3919 159.593 78.2993C158.79 77.3568 157.998 76.4142 157.195 75.4823Z" fill="#1D1D1B" stroke="#1D1D1B" stroke-width="1.5" stroke-miterlimit="10" stroke-linecap="round" stroke-linejoin="round"/>
<path d="M362.944 86.922C363.06 86.4886 363.879 83.5082 365.913 83.0009C368.92 82.2505 373.296 87.2285 377.277 95.7999C375.976 84.2375 374.193 69.9411 376.786 68.2078C380.295 65.8721 392.321 75.4921 398.752 73.0296C405.183 70.5672 409.577 68.7752 411.61 68.7435C410.003 56.421 409.23 57.6884 401.509 51.0299C393.037 43.7268 380.313 42.2155 371.773 47.5845C369.2 49.2015 367.455 51.1568 366.385 52.5836C364.438 52.8584 361.807 53.5665 359.406 55.4583C351.387 61.7785 353.575 75.4336 353.941 77.7376C356.322 92.6503 369.113 100.704 371.571 102.183C365.074 97.7551 361.652 91.6568 362.944 86.922Z" fill="#1D1D1B" stroke="#1D1D1B" stroke-width="1.5" stroke-miterlimit="10" stroke-linecap="round" stroke-linejoin="round"/>
<path d="M269.35 384.723C269.639 398.926 270.742 414.886 273.268 432.206C275.442 447.169 278.343 460.826 281.502 473.026C283.622 473.326 286.491 473.497 289.821 473.037C294.147 472.437 297.509 471.023 299.693 469.898C299.019 463.761 298.044 454.517 297.07 443.249C294.747 416.525 293.601 402.868 294.468 388.976C295.657 369.696 299.115 367.671 302.348 346.452C304.468 332.528 306.267 311.855 303.473 285.57" stroke="#1D1D1B" stroke-width="1.5" stroke-miterlimit="10" stroke-linecap="round" stroke-linejoin="round"/>
<path d="M257.954 313.237C255.041 307.282 252.129 301.326 249.217 295.36C251.38 300.373 255.791 308.224 257.954 313.237Z" stroke="#1D1D1B" stroke-width="1.5" stroke-miterlimit="10" stroke-linecap="round" stroke-linejoin="round"/>
<path d="M253.525 288.645C256.02 293.743 258.044 299.066 259.553 304.529" stroke="#1D1D1B" stroke-width="1.5" stroke-miterlimit="10" stroke-linecap="round" stroke-linejoin="round"/>
<path d="M449.361 195.607C448.58 195.864 447.434 196.207 446.031 196.528C439.532 198.007 435.286 195.978 435.142 197.739C434.998 199.5 439.008 199.753 443.312 200.074C445.774 200.256 447.852 200.042 449.297 199.806" stroke="#1D1D1B" stroke-width="1.5" stroke-miterlimit="10" stroke-linecap="round" stroke-linejoin="round"/>
<path d="M449.599 199.945C448.892 200.17 447.865 200.481 446.601 200.759C440.755 202.066 437.109 200.161 436.804 201.83C436.5 203.5 440.284 203.608 444.149 203.898C446.366 204.069 448.229 203.876 449.535 203.662" stroke="#1D1D1B" stroke-width="1.5" stroke-miterlimit="10" stroke-linecap="round" stroke-linejoin="round"/>
<path d="M449.623 203.962C449.087 204.208 448.317 204.54 447.353 204.883C442.899 206.458 439.545 204.758 439.772 206.629C440 208.5 445.5 208 448.5 207.5C451.5 207 455.501 202.762 456.068 201.905C458.167 198.756 458.274 195.639 458.349 191.998C458.424 188.388 457.964 181.565 456.154 181.308C454.42 181.061 454.27 187.242 449.109 190.841C444.023 194.375 436.852 191.129 436.5 193C436.149 194.871 439.483 195.2 440.554 195.447C444.248 196.303 447.406 195.971 449.376 195.596" stroke="#1D1D1B" stroke-width="1.5" stroke-miterlimit="10" stroke-linecap="round" stroke-linejoin="round"/>
<path d="M392.039 218.357C392.853 215.712 394 210.831 394 206C394 202.326 394.5 199 392.703 199.174C390.905 199.347 392.232 204.894 390.197 211.802C388.677 216.976 387.274 218.844 385.55 221.5C387.242 212.62 385.55 210.217 384 210.5C382.45 210.783 382.66 215.915 381.707 218.261C380.572 221.067 378.687 225.577 380.614 227.783C381.771 229.111 383.784 229.026 386.246 228.908C389.683 228.726 395.283 228.437 399.812 224.066C405.476 218.593 407 210.5 406 210C405 209.5 404.716 210.731 402.703 214.073C401.429 216.183 400.347 217.918 399.598 219.107" stroke="#1D1D1B" stroke-width="1.5" stroke-miterlimit="10" stroke-linecap="round" stroke-linejoin="round"/>
<path d="M399.586 219.119C400.753 217.191 402.231 214.234 402.948 210.421C403.944 205.044 404.066 198.629 402.5 198.5C400.934 198.371 401.845 203.652 400.1 209.286C398.815 213.42 397.198 216.634 396.01 218.733" stroke="#1D1D1B" stroke-width="1.5" stroke-miterlimit="10" stroke-linecap="round" stroke-linejoin="round"/>
<path d="M396.01 218.732C397.424 216.29 399.544 211.813 399.287 206.168C399.051 201.187 398.69 195.354 397 195.5C395.31 195.646 396.257 200.095 395.871 204.615C395.368 210.528 393.559 215.23 392.049 218.368" stroke="#1D1D1B" stroke-width="1.5" stroke-miterlimit="10" stroke-linecap="round" stroke-linejoin="round"/>
<path d="M236.865 504.014C236.673 504.635 236.469 505.267 236.373 505.91C236.255 506.702 236.287 507.505 236.169 508.309C235.88 510.365 234.66 512.154 234.082 514.146C233.503 516.139 233.846 518.741 235.741 519.588C236.394 519.888 237.133 519.92 237.85 519.93C248.889 520.22 259.95 518.431 270.956 519.341C272.327 519.459 273.708 519.609 275.078 519.566C279.832 519.406 284.137 516.878 288.173 514.361C289.287 513.664 290.432 512.936 291.203 511.865C291.974 510.794 292.285 509.284 291.61 508.148C290.818 506.82 289.083 506.477 287.573 506.156C284.308 505.46 281.181 504.239 278.087 502.996C273.076 500.982 268.098 498.904 263.151 496.752C261.331 495.959 259.425 495.145 257.444 495.252C255.795 495.338 254.264 496.066 252.733 496.677C250.795 497.458 248.804 498.09 246.769 498.572C246.095 498.733 245.377 498.872 244.735 498.615C243.461 498.112 243.204 496.473 242.883 495.134C242.69 494.341 241.908 492.596 240.838 492.842C239.895 493.056 239.606 495.284 239.371 496.023C238.546 498.69 237.7 501.357 236.865 504.014Z" stroke="#1D1D1B" stroke-width="1.5" stroke-miterlimit="10" stroke-linecap="round" stroke-linejoin="round"/>
<path d="M252.506 502.064C253.951 500.361 255.739 498.679 257.956 498.497C260.311 498.304 262.506 499.889 263.834 501.839C264.755 503.199 265.376 504.956 264.744 506.466C263.716 506.969 262.495 506.305 261.65 505.545C260.804 504.774 259.979 503.831 258.844 503.66C257.87 503.51 256.917 503.981 256.082 504.506C255.247 505.031 254.422 505.641 253.448 505.813C252.699 505.941 251.36 505.652 251.093 504.806C250.803 503.863 251.96 502.706 252.506 502.064Z" stroke="#1D1D1B" stroke-width="1.5" stroke-miterlimit="10" stroke-linecap="round" stroke-linejoin="round"/>
<path d="M236.391 506.745C237.633 507.859 238.982 508.898 240.566 509.412C242.312 509.979 244.196 509.851 246.038 509.894C254.014 510.065 261.648 513.493 269.636 513.707C272.794 513.793 275.953 513.375 279.111 513.375C282.58 513.375 286.285 513.814 289.294 512.1C290.375 511.479 291.317 510.579 291.874 509.465" stroke="#1D1D1B" stroke-width="1.5" stroke-miterlimit="10" stroke-linecap="round" stroke-linejoin="round"/>
<path d="M238.983 496.837C239.583 497.619 240.183 498.39 240.782 499.172C241.96 500.704 243.159 502.267 243.823 504.088C243.877 504.238 243.93 504.41 243.855 504.549C243.812 504.645 243.716 504.71 243.62 504.763C242.624 505.352 241.36 505.288 240.268 504.913C238.983 504.474 237.934 503.906 237.217 503.296" stroke="#1D1D1B" stroke-width="1.5" stroke-miterlimit="10" stroke-linecap="round" stroke-linejoin="round"/>
<path d="M244.789 509.883C248.419 510.236 251.085 509.669 252.894 509.058C255.325 508.233 256.385 507.259 258.58 507.237C261.374 507.194 263.451 508.715 264.276 509.272C267.06 511.136 272.145 513.096 282.285 513.428" stroke="#1D1D1B" stroke-width="1.5" stroke-miterlimit="10" stroke-linecap="round" stroke-linejoin="round"/>
<path d="M270.262 499.793C271.086 500.254 272.414 501.175 273.313 502.792C273.774 503.628 274.362 504.442 274.084 505.395C273.784 506.466 272.671 507.344 272.874 508.437C273.013 509.208 273.881 509.647 274.47 509.936C277.146 511.265 280.337 510.611 281.868 510.183" stroke="#1D1D1B" stroke-width="1.5" stroke-miterlimit="10" stroke-linecap="round" stroke-linejoin="round"/>
<path d="M238.986 496.837C237.241 496.023 235.903 495.991 234.971 496.13C233.911 496.29 233.312 496.698 232.669 496.344C231.898 495.926 231.599 494.609 231.973 493.666C232.626 492.027 235.164 492.06 235.314 492.06C237.798 492.124 239.265 494.427 239.436 494.695" stroke="#1D1D1B" stroke-width="1.5" stroke-miterlimit="10" stroke-linecap="round" stroke-linejoin="round"/>
<path d="M247.004 490.956C247.957 490.892 248.942 490.838 249.852 491.117C250.773 491.395 251.629 492.06 251.865 492.981" stroke="#1D1D1B" stroke-width="1.5" stroke-miterlimit="10" stroke-linecap="round" stroke-linejoin="round"/>
<path d="M291.704 510.547C299.124 509.637 306.511 508.373 313.974 508.405C315.27 508.416 316.576 508.459 317.872 508.309C322.326 507.805 326.202 505.117 329.82 502.46C330.827 501.721 331.844 500.95 332.487 499.89C333.129 498.829 333.311 497.383 332.604 496.366C331.769 495.166 330.11 494.984 328.664 494.791C325.538 494.373 322.508 493.452 319.51 492.51C314.649 490.978 309.82 489.382 305.002 487.711C303.224 487.101 301.383 486.469 299.52 486.715C297.978 486.919 296.586 487.711 295.194 488.407C293.428 489.286 291.597 490.025 289.723 490.625C289.102 490.828 288.427 491.01 287.806 490.817C286.564 490.442 286.211 488.911 285.815 487.679C285.579 486.94 284.712 485.355 283.716 485.665C282.849 485.944 282.742 488.054 282.571 488.772C281.971 491.342 281.382 493.902 280.783 496.462C280.643 497.062 280.504 497.672 280.461 498.283C280.386 499.311 280.461 499.847 280.451 500.554C280.429 501.293 280.29 502.343 279.701 503.639" stroke="#1D1D1B" stroke-width="1.5" stroke-miterlimit="10" stroke-linecap="round" stroke-linejoin="round"/>
<path d="M295.357 493.495C296.588 491.792 298.151 490.078 300.228 489.735C302.434 489.382 304.608 490.71 305.999 492.456C306.963 493.666 307.68 495.273 307.199 496.74C306.267 497.286 305.079 496.751 304.222 496.097C303.366 495.433 302.53 494.609 301.449 494.523C300.517 494.448 299.65 494.973 298.911 495.519C298.162 496.076 297.434 496.708 296.534 496.933C295.839 497.115 294.564 496.933 294.243 496.162C293.879 495.305 294.896 494.127 295.357 493.495Z" stroke="#1D1D1B" stroke-width="1.5" stroke-miterlimit="10" stroke-linecap="round" stroke-linejoin="round"/>
<path d="M280.539 499.065C281.781 500.018 283.13 500.907 284.661 501.271C286.353 501.678 288.109 501.421 289.843 501.325C297.37 500.907 304.801 503.574 312.328 503.199C315.315 503.049 318.249 502.428 321.226 502.203C324.491 501.946 328.014 502.096 330.712 500.264C331.686 499.6 332.511 498.69 332.95 497.597" stroke="#1D1D1B" stroke-width="1.5" stroke-miterlimit="10" stroke-linecap="round" stroke-linejoin="round"/>
<path d="M283.075 489.168C283.642 489.8 284.209 490.421 284.766 491.053C285.88 492.285 287.015 493.549 287.7 495.059C287.753 495.188 287.807 495.327 287.764 495.455C287.732 495.541 287.657 495.605 287.582 495.659C286.768 496.227 285.676 496.259 284.713 496.012C283.578 495.713 282.646 495.295 281.982 494.823" stroke="#1D1D1B" stroke-width="1.5" stroke-miterlimit="10" stroke-linecap="round" stroke-linejoin="round"/>
<path d="M288.664 501.4C292.101 501.475 294.574 500.747 296.234 500.04C298.461 499.086 299.392 498.101 301.448 497.908C304.071 497.673 306.138 498.947 306.962 499.418C309.714 500.972 314.65 502.439 324.222 502.021" stroke="#1D1D1B" stroke-width="1.5" stroke-miterlimit="10" stroke-linecap="round" stroke-linejoin="round"/>
<path d="M311.906 490.057C312.72 490.432 314.037 491.192 314.99 492.659C315.482 493.409 316.093 494.138 315.911 495.059C315.707 496.087 314.722 496.997 314.99 498.015C315.183 498.733 316.028 499.086 316.596 499.311C319.219 500.361 322.164 499.515 323.577 499.011" stroke="#1D1D1B" stroke-width="1.5" stroke-miterlimit="10" stroke-linecap="round" stroke-linejoin="round"/>
<path d="M280.796 490.003C279.179 489.393 277.98 489.457 277.156 489.65C276.213 489.864 275.71 490.271 275.121 490.003C274.404 489.682 274.04 488.525 274.318 487.657C274.789 486.147 277.059 485.997 277.198 485.987C279.425 485.869 280.892 487.829 281.064 488.064" stroke="#1D1D1B" stroke-width="1.5" stroke-miterlimit="10" stroke-linecap="round" stroke-linejoin="round"/>
<path d="M283.791 485.408C284.969 484.197 285.59 482.698 285.825 481.198C286.072 479.699 285.954 478.199 285.815 476.7C285.729 475.736 285.622 474.782 285.515 473.818" stroke="#1D1D1B" stroke-width="1.5" stroke-miterlimit="10" stroke-linecap="round" stroke-linejoin="round"/>
<path d="M289.381 482.784C290.27 482.656 291.19 482.538 292.079 482.731C292.957 482.923 293.814 483.491 294.103 484.348" stroke="#1D1D1B" stroke-width="1.5" stroke-miterlimit="10" stroke-linecap="round" stroke-linejoin="round"/>
<path d="M299.577 486.736C299.438 486.007 299.256 485.29 299.084 484.572C298.057 480.213 297.532 475.585 297.553 471.033" stroke="#1D1D1B" stroke-width="1.5" stroke-miterlimit="10" stroke-linecap="round" stroke-linejoin="round"/>
<path d="M242.109 492.649C243.416 490.957 243.79 488.729 243.855 486.597C243.919 484.455 243.694 482.302 243.191 480.213" stroke="#1D1D1B" stroke-width="1.5" stroke-miterlimit="10" stroke-linecap="round" stroke-linejoin="round"/>
<path d="M257.349 478.692C257.038 482.902 257.22 487.154 257.873 491.321C258.077 492.628 258.366 494.009 259.276 494.973" stroke="#1D1D1B" stroke-width="1.5" stroke-miterlimit="10" stroke-linecap="round" stroke-linejoin="round"/>
<path d="M162.732 289.437C172.829 335.184 176.78 354.818 177.219 359.37C177.219 359.402 177.24 359.573 177.262 359.809C177.444 361.651 178.022 367.093 179.253 374.108C179.606 376.101 180.035 378.286 180.602 380.76C181.737 385.762 183.247 390.732 183.375 395.831C183.536 401.947 181.705 407.934 180.388 413.932C174.189 442.049 179.06 471.291 187.776 498.861C177.733 500.425 167.69 501.999 157.646 503.563C159.766 478.392 147.271 453.66 148.952 428.467C149.552 419.524 151.94 410.623 151.04 401.7C150.205 393.335 147.229 387.358 145.912 384.423C129.669 348.337 112.163 329.732 108.266 302.429C107.345 295.938 106.767 286.052 109.422 273.391" stroke="#1D1D1B" stroke-width="1.5" stroke-miterlimit="10" stroke-linecap="round" stroke-linejoin="round"/>
<path d="M120.691 336.887C119.953 375.715 118.025 390.014 116.227 395.306C115.959 396.088 114.257 400.972 112.436 407.848C111.762 410.376 111.077 413.215 110.391 416.482C108.121 427.353 108.143 438.557 108.164 449.665C108.186 460.794 108.207 471.923 108.239 483.062C114.481 483.737 120.831 483.287 126.923 481.745C127.651 481.563 128.433 481.327 128.904 480.716C129.503 479.945 129.396 478.842 129.268 477.856C127.191 461.436 130.306 444.834 133.625 428.628C134.964 422.073 136.377 415.443 139.397 409.498C140.66 407.013 142.127 405.181 143.765 401.497C146.067 396.345 147.095 391.707 147.619 388.504" stroke="#1D1D1B" stroke-width="1.5" stroke-miterlimit="10" stroke-linecap="round" stroke-linejoin="round"/>
<path d="M111.766 497.736C112.226 493.034 112.697 488.321 113.158 483.619" stroke="#1D1D1B" stroke-width="1.5" stroke-miterlimit="10" stroke-linecap="round" stroke-linejoin="round"/>
<path d="M127.823 482.237C127.705 483.18 127.641 484.455 127.845 485.943C128.016 487.154 128.316 488.171 128.605 488.953" stroke="#1D1D1B" stroke-width="1.5" stroke-miterlimit="10" stroke-linecap="round" stroke-linejoin="round"/>
<path d="M133.861 286.545C133.111 289.972 133.765 293.529 134.578 296.945C135.51 300.866 136.655 304.797 138.765 308.267C140.874 311.738 144.043 314.747 147.994 316.011" stroke="#1D1D1B" stroke-width="1.5" stroke-miterlimit="10" stroke-linecap="round" stroke-linejoin="round"/>
<path d="M140.643 292.95C144.765 303.029 148.202 313.365 150.911 323.873" stroke="#1D1D1B" stroke-width="1.5" stroke-miterlimit="10" stroke-linecap="round" stroke-linejoin="round"/>
<path d="M170.385 324.569C170.738 309.563 171.081 294.546 171.434 279.54" stroke="#1D1D1B" stroke-width="1.5" stroke-miterlimit="10" stroke-linecap="round" stroke-linejoin="round"/>
<path d="M182.142 511.447C181.285 513.289 180.407 515.185 178.994 516.599C175.942 519.652 170.557 519.588 167.58 516.471C166.306 515.143 165.374 513.322 163.704 512.647C163.426 512.54 163.115 512.465 162.848 512.615C162.526 512.797 162.441 513.225 162.376 513.6C162.002 515.999 161.627 518.409 161.252 520.809C160.974 522.619 160.685 524.461 160.856 526.293C160.899 526.732 160.974 527.182 161.242 527.525C161.563 527.932 162.087 528.071 162.569 528.178C166.777 529.121 171.135 529.313 175.396 528.746C178.233 528.371 181.028 527.664 183.876 527.514C187.217 527.343 190.536 527.932 193.866 528.307C198.448 528.821 203.052 528.917 207.656 529.024C210.761 529.088 213.877 529.163 216.939 528.66C221.554 527.9 225.89 525.886 230.152 523.894C228.342 522.105 225.762 521.473 223.278 521.344C220.804 521.216 218.31 521.526 215.836 521.301C209.915 520.766 204.68 517.253 199.369 514.478C196.243 512.84 192.998 511.436 189.69 510.258C188.137 509.712 186.36 508.887 184.722 508.694C183.041 508.491 182.816 509.99 182.142 511.447Z" stroke="#1D1D1B" stroke-width="1.5" stroke-miterlimit="10" stroke-linecap="round" stroke-linejoin="round"/>
<path d="M161.029 533.019C166.79 535.172 173.107 534.69 179.178 533.94C185.248 533.191 191.426 532.205 197.433 533.437C199.328 533.823 201.191 534.433 203.097 534.744C205.003 535.054 207.026 535.022 208.793 534.197" stroke="#1D1D1B" stroke-width="1.5" stroke-miterlimit="10" stroke-linecap="round" stroke-linejoin="round"/>
<path d="M161.029 527.771C160.526 530.234 160.215 532.741 160.098 535.258C163.834 536.565 167.614 537.882 171.543 538.118C173.61 538.246 175.676 538.064 177.732 537.786C182.09 537.186 186.415 536.125 190.816 536.125C193.814 536.125 196.79 536.618 199.767 536.918C209.896 537.946 220.228 536.725 229.896 533.373C230.41 533.191 230.967 532.976 231.267 532.494C231.535 532.045 231.524 531.477 231.481 530.941C231.299 528.478 230.871 526.025 230.218 523.658" stroke="#1D1D1B" stroke-width="1.5" stroke-miterlimit="10" stroke-linecap="round" stroke-linejoin="round"/>
<path d="M218.342 521.301C219.134 523.432 220.034 525.51 221.051 527.524" stroke="#1D1D1B" stroke-width="1.5" stroke-miterlimit="10" stroke-linecap="round" stroke-linejoin="round"/>
<path d="M182.549 509.69C181.661 509.326 180.858 508.726 180.237 507.955C179.969 507.633 179.733 507.248 179.69 506.819C179.658 506.509 179.744 506.198 179.84 505.898C180.333 504.195 180.943 502.535 181.671 500.928C181.746 500.757 181.821 500.586 181.96 500.468C182.41 500.039 183.106 500.403 183.609 500.768C186.211 502.685 188.834 504.624 191.725 506.016C192.528 506.402 193.363 506.755 194.091 507.28C194.819 507.805 195.44 508.48 196.072 509.133C197.079 510.161 198.128 511.136 199.188 512.111C200.012 512.861 200.837 513.621 201.758 514.221C202.668 514.81 203.663 515.249 204.616 515.785C207.015 517.145 209.06 519.191 211.629 520.133" stroke="#1D1D1B" stroke-width="1.5" stroke-miterlimit="10" stroke-linecap="round" stroke-linejoin="round"/>
<path d="M185.324 513.685C186.427 512.089 187.573 510.504 188.975 509.197C190.378 507.89 192.08 506.873 193.943 506.594C193.997 506.584 193.89 506.498 193.901 506.562" stroke="#1D1D1B" stroke-width="1.5" stroke-miterlimit="10" stroke-linecap="round" stroke-linejoin="round"/>
<path d="M190.967 515.528C192.691 512.957 195.314 511.061 198.215 510.29" stroke="#1D1D1B" stroke-width="1.5" stroke-miterlimit="10" stroke-linecap="round" stroke-linejoin="round"/>
<path d="M196.77 518.344C197.894 516.341 199.596 514.703 201.598 513.707" stroke="#1D1D1B" stroke-width="1.5" stroke-miterlimit="10" stroke-linecap="round" stroke-linejoin="round"/>
<path d="M201.557 520.381C202.563 519.159 203.655 517.874 205.122 517.403C205.636 517.231 206.193 517.178 206.664 516.889" stroke="#1D1D1B" stroke-width="1.5" stroke-miterlimit="10" stroke-linecap="round" stroke-linejoin="round"/>
<path d="M207.242 521.847C207.767 520.637 208.763 519.662 209.94 519.191" stroke="#1D1D1B" stroke-width="1.5" stroke-miterlimit="10" stroke-linecap="round" stroke-linejoin="round"/>
<path d="M192.207 507.302C192.625 508.534 192.839 509.84 192.839 511.147" stroke="#1D1D1B" stroke-width="1.5" stroke-miterlimit="10" stroke-linecap="round" stroke-linejoin="round"/>
<path d="M196.898 511.146C197.252 511.853 197.552 512.582 197.809 513.321" stroke="#1D1D1B" stroke-width="1.5" stroke-miterlimit="10" stroke-linecap="round" stroke-linejoin="round"/>
<path d="M201.117 513.728C201.556 514.424 201.963 515.153 202.338 515.892" stroke="#1D1D1B" stroke-width="1.5" stroke-miterlimit="10" stroke-linecap="round" stroke-linejoin="round"/>
<path d="M210.228 537.207C210.131 535.258 210.024 533.319 209.928 531.37C213.868 531.788 217.894 531.316 221.652 529.977C223.194 529.431 224.693 528.746 226.181 528.049C227.637 527.375 229.093 526.71 230.549 526.036" stroke="#1D1D1B" stroke-width="1.5" stroke-miterlimit="10" stroke-linecap="round" stroke-linejoin="round"/>
<path d="M163.044 506.102C157.53 505.288 152.594 502.021 147.572 499.397C144.446 497.758 141.201 496.355 137.893 495.176C136.34 494.63 134.563 493.805 132.925 493.613C131.212 493.42 130.998 494.919 130.323 496.365C129.467 498.208 128.589 500.103 127.175 501.517C124.124 504.57 118.738 504.506 115.762 501.389C114.498 500.061 113.556 498.24 111.886 497.565C111.607 497.458 111.297 497.383 111.029 497.533C110.708 497.715 110.622 498.143 110.558 498.518C110.183 500.918 109.809 503.328 109.434 505.727C109.155 507.537 108.866 509.379 109.038 511.211C109.081 511.65 109.155 512.1 109.423 512.443C109.744 512.85 110.269 512.989 110.751 513.096C114.959 514.039 119.316 514.231 123.578 513.664C126.415 513.289 129.21 512.582 132.058 512.432C135.398 512.261 138.717 512.85 142.047 513.225C146.63 513.739 151.234 513.835 155.838 513.942C158.001 513.985 160.174 514.039 162.326 513.889" stroke="#1D1D1B" stroke-width="1.5" stroke-miterlimit="10" stroke-linecap="round" stroke-linejoin="round"/>
<path d="M109.207 517.948C114.967 520.101 121.284 519.619 127.355 518.869C133.244 518.141 139.336 517.905 145.611 518.366C146.349 518.42 148.598 518.602 151.703 518.666C154.348 518.719 156.532 518.655 157.988 518.591" stroke="#1D1D1B" stroke-width="1.5" stroke-miterlimit="10" stroke-linecap="round" stroke-linejoin="round"/>
<path d="M109.197 512.71C108.694 515.174 108.383 517.68 108.266 520.198C112.002 521.504 115.782 522.822 119.711 523.057C121.778 523.186 123.844 523.004 125.9 522.725C130.258 522.126 134.583 521.065 138.984 521.065C140.119 521.065 141.254 521.14 142.378 521.237C145.28 521.504 147.4 521.783 147.935 521.858C150.141 522.179 153.942 522.404 160.987 521.954" stroke="#1D1D1B" stroke-width="1.5" stroke-miterlimit="10" stroke-linecap="round" stroke-linejoin="round"/>
<path d="M130.729 494.619C129.84 494.255 129.037 493.655 128.416 492.884C128.149 492.563 127.913 492.177 127.87 491.749C127.838 491.438 127.924 491.127 128.02 490.827C128.513 489.124 129.123 487.464 129.851 485.857C129.926 485.686 130.001 485.515 130.14 485.397C130.59 484.968 131.286 485.333 131.789 485.697C134.391 487.614 137.014 489.553 139.905 490.945C140.708 491.331 141.543 491.684 142.271 492.209C142.999 492.734 143.62 493.409 144.252 494.062C145.258 495.091 146.308 496.065 147.368 497.04C148.192 497.79 149.016 498.55 149.937 499.15C150.847 499.739 151.843 500.178 152.796 500.714C155.194 502.074 157.239 504.12 159.809 505.063" stroke="#1D1D1B" stroke-width="1.5" stroke-miterlimit="10" stroke-linecap="round" stroke-linejoin="round"/>
<path d="M133.504 498.615C134.607 497.019 135.752 495.434 137.155 494.127C138.558 492.82 140.26 491.803 142.123 491.524C142.177 491.513 142.069 491.428 142.08 491.492" stroke="#1D1D1B" stroke-width="1.5" stroke-miterlimit="10" stroke-linecap="round" stroke-linejoin="round"/>
<path d="M139.145 500.457C140.868 497.886 143.492 495.99 146.393 495.219" stroke="#1D1D1B" stroke-width="1.5" stroke-miterlimit="10" stroke-linecap="round" stroke-linejoin="round"/>
<path d="M144.945 503.274C146.07 501.271 147.772 499.632 149.774 498.636" stroke="#1D1D1B" stroke-width="1.5" stroke-miterlimit="10" stroke-linecap="round" stroke-linejoin="round"/>
<path d="M149.732 505.309C150.739 504.088 151.831 502.802 153.298 502.331C153.812 502.16 154.369 502.106 154.84 501.817" stroke="#1D1D1B" stroke-width="1.5" stroke-miterlimit="10" stroke-linecap="round" stroke-linejoin="round"/>
<path d="M155.418 506.776C155.943 505.566 156.938 504.591 158.116 504.12" stroke="#1D1D1B" stroke-width="1.5" stroke-miterlimit="10" stroke-linecap="round" stroke-linejoin="round"/>
<path d="M140.387 492.231C140.804 493.463 141.018 494.77 141.018 496.076" stroke="#1D1D1B" stroke-width="1.5" stroke-miterlimit="10" stroke-linecap="round" stroke-linejoin="round"/>
<path d="M145.074 496.076C145.428 496.783 145.727 497.511 145.984 498.251" stroke="#1D1D1B" stroke-width="1.5" stroke-miterlimit="10" stroke-linecap="round" stroke-linejoin="round"/>
<path d="M149.293 498.668C149.732 499.364 150.139 500.093 150.514 500.832" stroke="#1D1D1B" stroke-width="1.5" stroke-miterlimit="10" stroke-linecap="round" stroke-linejoin="round"/>
<path d="M158.383 521.89C158.286 520.026 158.19 518.163 158.094 516.31C159.368 516.449 160.663 516.492 161.938 516.438" stroke="#1D1D1B" stroke-width="1.5" stroke-miterlimit="10" stroke-linecap="round" stroke-linejoin="round"/>
<path d="M163.071 512.058C164.324 509.219 164.313 505.802 163.061 502.975" stroke="#1D1D1B" stroke-width="1.5" stroke-miterlimit="10" stroke-linecap="round" stroke-linejoin="round"/>
<ellipse rx="5.78454" ry="9.61294" transform="matrix(-0.862645 0.505809 -0.505795 -0.862654 204.349 51.739)" fill="#50EFF5"/>
<ellipse rx="4.82952" ry="8.02585" transform="matrix(0.788633 0.614864 0.614845 -0.788648 178.435 84.8254)" fill="#1436E5"/>
<ellipse rx="4.82952" ry="8.02585" transform="matrix(-0.862639 0.505819 -0.505785 -0.86266 195.903 107.551)" fill="#50EFF5"/>
<ellipse rx="3.44167" ry="5.71948" transform="matrix(0.788628 0.61487 0.614839 -0.788653 179.852 127.494)" fill="#1436E5"/>
<ellipse rx="3.44167" ry="5.71948" transform="matrix(-0.862642 0.505815 -0.505789 -0.862657 194.566 160.046)" fill="#1436E5"/>
<ellipse rx="2.32371" ry="4.14404" transform="matrix(-0.647907 -0.761719 0.761696 -0.647934 180.442 186.733)" fill="#1436E5"/>
<ellipse rx="7.18394" ry="8.82022" transform="matrix(0.626457 0.798465 0.776813 -0.605311 324.944 49.3232)" fill="#50EFF5"/>
<ellipse rx="4.79602" ry="7.95175" transform="matrix(-0.902511 0.394214 -0.415668 -0.925921 336.702 76.1045)" fill="#1436E5"/>
<ellipse rx="4.023" ry="6.70345" transform="matrix(0.62637 0.798535 0.776762 -0.605377 317.444 99.1779)" fill="#50EFF5"/>
<ellipse rx="4.00426" ry="6.63918" transform="matrix(-0.902505 0.394226 -0.415655 -0.925926 324.494 121.405)" fill="#1436E5"/>
<ellipse rx="2.86701" ry="4.77726" transform="matrix(0.626356 0.798546 0.776752 -0.60539 308.801 140.767)" fill="#1436E5"/>
<ellipse rx="2.85359" ry="4.73123" transform="matrix(-0.902517 0.3942 -0.415684 -0.925914 318.47 164.633)" fill="#1436E5"/>
<ellipse rx="1.93749" ry="3.46415" transform="matrix(-0.454119 -0.907974 0.884249 -0.433009 307.236 181.238)" fill="#1436E5"/>
<ellipse rx="7.18405" ry="8.82032" transform="matrix(0.62645 0.79847 0.776809 -0.605317 466.479 7.97137)" fill="#1436E5"/>
<ellipse rx="4.79605" ry="7.95193" transform="matrix(-0.902508 0.394222 -0.41566 -0.925923 478.235 34.7527)" fill="#1436E5"/>
<ellipse rx="4.02308" ry="6.70353" transform="matrix(0.626356 0.798544 0.776753 -0.60539 458.979 57.8261)" fill="#50EFF5"/>
<ellipse rx="4.00422" ry="6.639" transform="matrix(-0.90251 0.394218 -0.415665 -0.925921 466.029 80.0535)" fill="#1436E5"/>
<ellipse rx="2.86693" ry="4.77719" transform="matrix(0.626377 0.798528 0.776767 -0.605372 450.339 99.4148)" fill="#50EFF5"/>
<ellipse rx="2.85358" ry="4.73139" transform="matrix(-0.902509 0.39422 -0.415663 -0.925922 460.005 123.281)" fill="#50EFF5"/>
<ellipse rx="1.93737" ry="3.46412" transform="matrix(-0.454149 -0.907959 0.884264 -0.43298 448.771 139.886)" fill="#1436E5"/>
</g>
<path d="M380.264 504.822C378.674 502.948 377.616 501.322 377.076 498.874C376.904 498.095 376.395 495.805 377.111 494.959C377.966 493.948 380.963 494.371 381.893 494.994C383.378 495.987 383.054 497.817 382.033 499.041C380.263 501.163 377.089 501.798 374.588 502.614" stroke="#1D1E1B" stroke-width="1.5" stroke-linecap="round" stroke-linejoin="round"/>
<path d="M465.089 487.636C462.503 487.14 461.014 485.399 460.745 482.801C460.54 480.832 460.716 476.748 463.259 476.179C465.817 475.606 467.089 478.983 466.447 480.935C465.447 483.976 462.362 485.764 459.729 487.163" stroke="#1D1E1B" stroke-width="1.5" stroke-linecap="round" stroke-linejoin="round"/>
<path d="M193.426 247.167C191.455 249.045 167.156 262.282 165.375 258.266C163.593 254.25 167.645 247.884 170.03 247.105C172.414 246.325 178.307 227.423 180.515 228.036C182.723 228.65 178.039 239.868 178.039 239.868C178.749 239.688 181.431 237.817 183.064 235.676C184.696 233.534 190.316 222.641 191.628 223.524C192.939 224.407 184.938 240.469 185.5 239.984C186.882 238.792 189.515 234.41 191.548 231.286C193.581 228.161 196.284 221.704 197.73 222.105C199.175 222.506 196.205 229.465 195.054 231.74C193.903 234.015 189.836 241.188 189.836 241.188C189.836 241.188 200.781 226.066 201.878 225.852C202.976 225.637 199.09 233.704 197.49 236.049C195.89 238.394 192.058 244.397 192.058 244.397C192.058 244.397 201.932 233.132 203.726 234.148C205.519 235.165 195.012 245.657 193.426 247.167Z" fill="white" stroke="#1D1D1B" stroke-width="1.5" stroke-linecap="round" stroke-linejoin="round"/>
<path d="M167.5 244.5L171 246" stroke="#1D1D1B" stroke-width="1.5"/>
</g>
</svg>
